<svg id="SvgjsSvg1001" width="288" height="288" xmlns="http://www.w3.org/2000/svg" version="1.1" xmlns:xlink="http://www.w3.org/1999/xlink" xmlns:svgjs="http://svgjs.com/svgjs"><defs id="SvgjsDefs1002"></defs><g id="SvgjsG1008" transform="matrix(1,0,0,1,0,0)"><svg xmlns="http://www.w3.org/2000/svg" viewBox="0 0 231.039 231.156" width="288" height="288"><path fill="#35b8be" d="M115.517 231.156h-.009a.482.482 0 01-.482-.482.646.646 0 011.239 0 .478.478 0 01-.478.482h-.009a.478.478 0 01-.128-.017A.507.507 0 01115.517 231.156zm-7.684-.252a.566.566 0 01-.126-.015A.488.488 0 11107.833 230.9zm15.63-.017a.482.482 0 01-.117-.951.5.5 0 01.609.467.483.483 0 01-.436.48zm-23.282-.743a.559.559 0 01-.126-.015A.488.488 0 11100.181 230.144zm30.932-.035a.482.482 0 01-.117-.951.5.5 0 01.609.467.483.483 0 01-.436.48zM92.6 228.875a.474.474 0 01-.1-.009.484.484 0 01-.4-.475.5.5 0 01.644-.456A.482.482 0 0192.6 228.875zm46.1-.053a.487.487 0 11.162-.026A.556.556 0 01138.693 228.822zm-53.7-1.74a.483.483 0 01.234-.936zm61.181-.052a.482.482 0 01-.117-.951.488.488 0 01.585.332.478.478 0 01-.306.592l-.045.013A.492.492 0 01146.17 227.03zm-68.526-2.223a.483.483 0 01.234-.936zm75.866-.07a.482.482 0 01-.117-.951.488.488 0 01.585.332.479.479 0 01-.306.592l-.045.013A.5.5 0 01153.511 224.737zm-82.926-2.682a.48.48 0 01-.153-.024.6.6 0 01-.123-.06A.485.485 0 1170.585 222.055zm90.085-.093a.482.482 0 01-.268-.884.6.6 0 01.123-.06A.483.483 0 11160.67 221.962zM63.6 218.812a.473.473 0 01-.234-.061.482.482 0 01.379-.884.6.6 0 01.123.061A.482.482 0 0163.6 218.812zm104.026-.1a.489.489 0 11.276-.086.6.6 0 01-.124.061A.477.477 0 01167.629 218.711zM56.856 215.106a.473.473 0 01-.234-.061A.482.482 0 0157 214.161a.6.6 0 01.123.061A.482.482 0 0156.856 215.106zm117.5-.105a.489.489 0 11.276-.086.6.6 0 01-.123.061A.48.48 0 01174.356 215zM50.411 210.969a.548.548 0 01-.3-.091.61.61 0 01-.081-.066.482.482 0 11.682-.682.444.444 0 01.1.642A.469.469 0 0150.411 210.969zm130.413-.121a.482.482 0 01-.341-.823.61.61 0 01.081-.066A.482.482 0 11180.824 210.848zM44.22 206.4a.549.549 0 01-.3-.09.6.6 0 01-.081-.066.482.482 0 11.682-.682.444.444 0 01.1.642A.469.469 0 0144.22 206.4zM187 206.271a.482.482 0 01-.341-.823.6.6 0 01.081-.066A.483.483 0 11187 206.271zM38.312 201.423a.48.48 0 01-.267-.081.528.528 0 01-.141-.14A.485.485 0 1138.312 201.423zm154.551-.127a.482.482 0 01-.4-.75.525.525 0 01.141-.14A.483.483 0 11192.862 201.3zM32.779 196.073a.474.474 0 01-.336-.139l-.007-.007a.482.482 0 11.682-.682A.483.483 0 0132.779 196.073zm165.6-.133a.482.482 0 01-.341-.823.487.487 0 01.686 0 .48.48 0 010 .679l-.007.007A.481.481 0 01198.381 195.94zM27.624 190.373a.485.485 0 11.261-.891.539.539 0 01.14.141A.482.482 0 0127.624 190.373zm175.909-.144a.488.488 0 11.408-.222.525.525 0 01-.14.141A.482.482 0 01203.533 190.229zM22.856 184.343a.485.485 0 11.335-.831.6.6 0 01.066.081A.482.482 0 0122.856 184.343zm185.44-.157a.482.482 0 01-.341-.823.443.443 0 01.641-.1.517.517 0 01.106.7.6.6 0 01-.066.081A.481.481 0 01208.3 184.185zM18.5 178.01a.482.482 0 01-.4-.215.6.6 0 01-.061-.123A.485.485 0 1118.5 178.01zm194.147-.171a.482.482 0 01-.458-.635.6.6 0 01.061-.123A.483.483 0 11212.645 177.84zM14.575 171.4a.482.482 0 01-.4-.215.6.6 0 01-.061-.123A.485.485 0 1114.575 171.4zm201.987-.188a.478.478 0 01-.153-.025.484.484 0 01-.305-.61.6.6 0 01.061-.123A.483.483 0 11216.562 171.214zM11.1 164.55a.486.486 0 11.4-.758.6.6 0 01.06.123.484.484 0 01-.305.611A.506.506 0 0111.1 164.55zm208.925-.209a.482.482 0 01-.437-.686.482.482 0 01.9.348.6.6 0 01-.06.123A.482.482 0 01220.028 164.341zM8.1 157.482a.486.486 0 11.4-.758.6.6 0 01.06.123.483.483 0 01-.305.61A.5.5 0 018.1 157.482zm214.925-.233a.482.482 0 01-.431-.7.459.459 0 01.6-.278.506.506 0 01.294.637.682.682 0 01-.03.073A.484.484 0 01223.025 157.25zM5.572 150.216a.476.476 0 01-.454-.326c0-.012-.01-.033-.013-.045a.483.483 0 11.6.351A.5.5 0 015.572 150.216zm219.965-.246a.5.5 0 01-.117-.014.484.484 0 01-.351-.585l.936.234A.482.482 0 01225.537 149.97zM226 149.63h0zM3.544 142.8a.483.483 0 01-.458-.33.555.555 0 01-.026-.162A.485.485 0 113.544 142.8zm224.007-.255a.482.482 0 01-.482-.482.556.556 0 01.026-.162A.483.483 0 11227.551 142.547zM2.017 135.267a.483.483 0 01-.458-.33.556.556 0 01-.026-.162A.485.485 0 112.017 135.267zm227.044-.26a.482.482 0 01-.482-.482.557.557 0 01.026-.162A.483.483 0 11229.061 135.007zM1 127.646a.487.487 0 11.467-.609.564.564 0 01.015.126A.482.482 0 011 127.646zm229.066-.262a.5.5 0 01-.117-.014.488.488 0 01.118-.96h0a.482.482 0 01.482.482.56.56 0 01-.015.126A.482.482 0 01230.063 127.384zM.486 119.969A.478.478 0 010 119.492v-.009A.482.482 0 11.486 119.969zm230.071-.258a.485.485 0 11.482-.492v.009A.482.482 0 01230.557 119.711zM.482 112.279A.478.478 0 010 111.8v-.009A.482.482 0 11.482 112.279zm230.062-.258a.485.485 0 11.482-.492v.009A.482.482 0 01230.544 112.021zM.983 104.611h0A.482.482 0 01.5 104.129.566.566 0 01.516 104 .483.483 0 11.983 104.611zm229.041-.263a.483.483 0 01-.468-.366.567.567 0 01-.015-.126.483.483 0 11.6.478A.491.491 0 01230.025 104.349zM1.993 96.988a.477.477 0 01-.153-.025A.487.487 0 112.477 96.5a.553.553 0 01-.026.162A.483.483 0 011.993 96.988zm227-.259a.487.487 0 11.456-.644.556.556 0 01.026.162A.482.482 0 01229 96.729zM3.513 89.451A.487.487 0 114 88.959a.553.553 0 01-.026.162A.484.484 0 013.513 89.451zM227.462 89.2a.487.487 0 11.456-.644.556.556 0 01.026.162A.482.482 0 01227.462 89.2zm-2.038-7.415a.482.482 0 01-.468-.365.487.487 0 01.332-.585.476.476 0 01.592.306c0 .012.01.033.013.045a.484.484 0 01-.351.585A.5.5 0 01225.423 81.781zM6.005 81.657l-.936-.234A.483.483 0 116.005 81.657zm2.054-6.872a.535.535 0 01-.169-.028A.506.506 0 017.6 74.12a.673.673 0 01.03-.073.482.482 0 11.863.431A.443.443 0 018.059 74.785zm214.831-.263a.484.484 0 01-.431-.267.516.516 0 01.29-.646.451.451 0 01.587.245A.483.483 0 01222.89 74.522zM11.059 67.666a.506.506 0 01-.153-.025.484.484 0 01-.305-.61.6.6 0 01.06-.123A.483.483 0 1111.059 67.666zm208.819-.209a.482.482 0 01-.4-.215.605.605 0 01-.06-.123A.484.484 0 11219.878 67.457zM14.533 60.8A.488.488 0 1115 60.457a.6.6 0 01-.061.123A.482.482 0 0114.533 60.8zM216.4 60.607a.486.486 0 11.4-.758.6.6 0 01.061.123.484.484 0 01-.305.61A.477.477 0 01216.4 60.607zM18.456 54.176a.488.488 0 11.462-.338.6.6 0 01-.061.123A.482.482 0 0118.456 54.176zM212.468 54a.486.486 0 11.4-.758.6.6 0 01.061.123A.482.482 0 01212.468 54zM22.808 47.877a.5.5 0 01-.395-.794A.6.6 0 0122.479 47a.482.482 0 01.682.682A.417.417 0 0122.808 47.877zm185.3-.2a.48.48 0 01-.341-.141.6.6 0 01-.066-.081A.483.483 0 11208.1 47.676zM27.582 41.8a.482.482 0 01-.4-.75.525.525 0 01.14-.141A.484.484 0 1127.582 41.8zm175.748-.144a.481.481 0 01-.267-.081.525.525 0 01-.14-.141A.484.484 0 11203.33 41.651zM32.742 36.085a.48.48 0 01-.343-.819l.007-.007a.482.482 0 11.682.682A.488.488 0 0132.742 36.085zm165.421-.13a.481.481 0 01-.341-.141.488.488 0 010-.686.48.48 0 01.679 0l.007.007A.482.482 0 01198.163 35.955zM38.265 30.74a.488.488 0 11.408-.221.526.526 0 01-.141.14A.481.481 0 0138.265 30.74zm154.364-.126a.485.485 0 11.26-.89.542.542 0 01.141.14A.482.482 0 01192.63 30.613zm-148.5-4.844a.488.488 0 11.348-.147.6.6 0 01-.081.066A.481.481 0 0144.133 25.769zm142.62-.119a.481.481 0 01-.341-.141.444.444 0 01-.1-.642.515.515 0 01.7-.107.6.6 0 01.081.066A.482.482 0 01186.752 25.651zM50.315 21.2a.488.488 0 11.348-.147.6.6 0 01-.081.066A.481.481 0 0150.315 21.2zm130.241-.111a.481.481 0 01-.341-.141.444.444 0 01-.1-.642.515.515 0 01.7-.106.6.6 0 01.081.066A.482.482 0 01180.557 21.089zM56.786 17.057a.482.482 0 01-.268-.884.6.6 0 01.123-.061A.482.482 0 0157.02 17 .476.476 0 0156.786 17.057zm117.285-.107a.477.477 0 01-.153-.024.6.6 0 01-.123-.061A.484.484 0 11174.071 16.95zm-110.553-3.6a.482.482 0 01-.268-.884.6.6 0 01.123-.061A.483.483 0 1163.518 13.353zm103.8-.1a.478.478 0 01-.153-.024.6.6 0 01-.123-.061A.484.484 0 11167.32 13.253zm-96.84-3.143a.488.488 0 11.276-.085.605.605 0 01-.123.06A.481.481 0 0170.479 10.109zm89.855-.093a.49.49 0 01-.466-.639.485.485 0 01.61-.305.6.6 0 01.123.06A.482.482 0 01160.335 10.016zM77.649 7.338a.486.486 0 01-.467-.346A.479.479 0 0177.488 6.4l.045-.013a.483.483 0 01.234.936A.51.51 0 0177.649 7.338zm75.5-.084a.5.5 0 01-.117-.014l.234-.936A.482.482 0 01153.146 7.255zm-68.154-2.2a.486.486 0 01-.467-.346.48.48 0 01.306-.592L84.877 4.1a.483.483 0 01.234.936A.511.511 0 0184.992 5.055zm60.8-.067a.5.5 0 01-.117-.014l.234-.936A.482.482 0 01145.8 4.988zM92.463 3.274a.482.482 0 01-.153-.94.5.5 0 01.644.456.483.483 0 01-.395.475A.49.49 0 0192.463 3.274zm45.852-.052a.553.553 0 01-.162-.026A.486.486 0 11138.315 3.222zM100.045 1.994a.485.485 0 11.126-.015A.566.566 0 01100.045 1.994zm30.683-.034l-.056 0a.483.483 0 01-.436-.48.5.5 0 01.609-.467A.482.482 0 01130.728 1.96zM107.7 1.226a.485.485 0 11.126-.015A.566.566 0 01107.7 1.226zm15.381-.018l-.056 0a.483.483 0 01-.436-.48.5.5 0 01.609-.467A.482.482 0 01123.076 1.208zm-7.685-.243A.486.486 0 01114.9.482.478.478 0 01115.382 0h.009A.482.482 0 11115.391.965zM114.91 221.925a.6.6 0 01.609-.6h0a.611.611 0 01.125.009h0a.523.523 0 01.125-.009h0a.591.591 0 01.608.6h0a.618.618 0 01-.608.608h0a.58.58 0 01-.125-.02h0a.579.579 0 01-.125.02h0A.606.606 0 01114.91 221.925zm-7.109.328h0a.605.605 0 01-.559-.646h0a.6.6 0 01.646-.55h0a.59.59 0 01.56.637h0a.612.612 0 01-.608.569h0A.258.258 0 00107.8 222.253zm15.039-.569a.6.6 0 01.56-.647h0a.6.6 0 01.646.55h0a.6.6 0 01-.559.646h0a.059.059 0 01-.039.009h0A.609.609 0 01122.84 221.684zm-22.708-.251a.6.6 0 01-.512-.685h0a.6.6 0 01.675-.511h0a.6.6 0 01.511.685h0a.592.592 0 01-.589.511h-.087zm30.348-.549a.6.6 0 01.5-.685h0a.6.6 0 01.685.511h0a.6.6 0 01-.5.685h-.087A.594.594 0 01130.48 220.883zm-37.949-.83a.6.6 0 01-.463-.714h0a.613.613 0 01.723-.463h0a.6.6 0 01.463.713h0a.616.616 0 01-.589.473h0A.643.643 0 0192.531 220.053zm45.5-.512a.613.613 0 01.463-.724h0a.6.6 0 01.714.464h0a.6.6 0 01-.453.714h0a.664.664 0 01-.136.019h0A.606.606 0 01138.033 219.542zm-52.978-1.408v-.009h0a.6.6 0 01-.405-.743h0a.6.6 0 01.752-.405h0a.6.6 0 01.4.743h0a.608.608 0 01-.578.434h0A1.089 1.089 0 0185.055 218.134zm60.416-.482a.606.606 0 01.405-.753h0a.607.607 0 01.753.406h0a.606.606 0 01-.406.752h0a.517.517 0 01-.173.02h0A.607.607 0 01145.47 217.651zm-67.738-1.987h0a.6.6 0 01-.347-.772h0a.6.6 0 01.781-.357h0a.606.606 0 01.348.781h0a.592.592 0 01-.56.386h0A.614.614 0 0177.732 215.665zm75.021-.434a.6.6 0 01.357-.781H153.1a.605.605 0 01.781.347h0a.606.606 0 01-.348.782h0a.558.558 0 01-.212.039h0A.613.613 0 01152.753 215.23zm-82.14-2.557h0a.607.607 0 01-.3-.8h0a.6.6 0 01.8-.289h0a.6.6 0 01.3.8h0a.618.618 0 01-.549.348h0A.564.564 0 0170.613 212.674zm89.23-.395a.6.6 0 01.29-.8h0a.6.6 0 01.8.3h0a.6.6 0 01-.289.791h0a.633.633 0 01-.26.057h0A.589.589 0 01159.843 212.279zm-96.117-3.107H63.717a.6.6 0 01-.232-.82h0a.6.6 0 01.82-.232h0a.611.611 0 01.241.82h0a.623.623 0 01-.53.309h0A.621.621 0 0163.726 209.172zm102.967-.337a.611.611 0 01.232-.83h0a.606.606 0 01.82.241h0a.6.6 0 01-.232.821h0a.659.659 0 01-.3.077h0A.6.6 0 01166.693 208.835zM57.108 205.188a.617.617 0 01-.183-.839h0a.606.606 0 01.839-.173h0a.6.6 0 01.173.83h0a.594.594 0 01-.5.28h0A.65.65 0 0157.108 205.188zm116.163-.3a.6.6 0 01.174-.83h0a.606.606 0 01.839.173h0a.6.6 0 01-.174.83h0a.607.607 0 01-.328.1h0A.589.589 0 01173.271 204.89zM50.8 200.731a.6.6 0 01-.115-.849h0a.6.6 0 01.838-.116v.009a.589.589 0 01.116.839h0a.607.607 0 01-.482.241h0A.558.558 0 0150.8 200.731zm128.761-.241a.6.6 0 01.116-.849h0a.592.592 0 01.839.116h0a.61.61 0 01-.106.849h0a.67.67 0 01-.366.125h0A.607.607 0 01179.561 200.49zM44.819 195.831a.6.6 0 01-.049-.849h0a.6.6 0 01.85-.048h0a.607.607 0 01.057.849h0a.617.617 0 01-.453.2h0A.589.589 0 0144.819 195.831zm140.693-.183a.6.6 0 01.057-.849h0a.6.6 0 01.85.048h0a.607.607 0 01-.049.849h0a.59.59 0 01-.405.154h0A.617.617 0 01185.513 195.648zm-146.3-5.123h0a.608.608 0 01.009-.858h0a.606.606 0 01.85.009h0a.62.62 0 010 .859h0a.621.621 0 01-.425.173h0A.632.632 0 0139.214 190.525zm151.893-.144a.605.605 0 01-.009-.849h0a.609.609 0 01.858-.01h0a.6.6 0 010 .849h0a.567.567 0 01-.424.184h0A.6.6 0 01191.107 190.381zm.849-.01h.01l-.01.01h0v-.01zM34.006 184.824h0a.607.607 0 01.067-.849h0a.607.607 0 01.849.068h0a.6.6 0 01-.067.849h0a.582.582 0 01-.386.145h0A.6.6 0 0134.006 184.824zm162.3-.087a.607.607 0 01-.068-.849h0a.59.59 0 01.849-.067h0a.6.6 0 01.077.849h-.009a.615.615 0 01-.454.212h0A.6.6 0 01196.307 184.737zM29.221 178.767a.61.61 0 01.125-.839h0a.614.614 0 01.849.135v-.009a.614.614 0 01-.136.849h0a.6.6 0 01-.356.116h0A.589.589 0 0129.221 178.767zm171.88-.039a.6.6 0 01-.136-.839h0a.6.6 0 01.839-.135h0a.614.614 0 01.136.849h0v-.01h0a.6.6 0 01-.493.251h0A.575.575 0 01201.1 178.728zM24.88 172.39h0a.618.618 0 01.192-.839h0a.607.607 0 01.83.193h0a.594.594 0 01-.184.83h0a.592.592 0 01-.328.1h0A.594.594 0 0124.88 172.39zm180.553 0a.6.6 0 01-.184-.83h0a.6.6 0 01.83-.192h0a.594.594 0 01.183.829h.009a.62.62 0 01-.52.29h0A.578.578 0 01205.433 172.39zM21.021 165.715a.6.6 0 01.241-.82h0a.6.6 0 01.82.251h0a.6.6 0 01-.251.81h0a.585.585 0 01-.28.077h0A.59.59 0 0121.021 165.715zm188.289.048a.609.609 0 01-.251-.82h0a.6.6 0 01.81-.251h0a.6.6 0 01.251.81h0a.592.592 0 01-.53.328h0A.7.7 0 01209.31 165.763zM17.645 158.769a.6.6 0 01.308-.79h0a.6.6 0 01.791.308h0a.6.6 0 01-.309.791h0a.522.522 0 01-.241.058h0A.592.592 0 0117.645 158.769zm195.041.087a.6.6 0 01-.309-.79h0a.605.605 0 01.8-.309h0a.6.6 0 01.309.791h0a.59.59 0 01-.559.357h0A.565.565 0 01212.687 158.856zM14.78 151.612a.611.611 0 01.366-.772h0a.6.6 0 01.772.367h0a.6.6 0 01-.367.772h0a.624.624 0 01-.2.029h0A.624.624 0 0114.78 151.612zm200.782.116a.614.614 0 01-.367-.771h0a.618.618 0 01.772-.367h0a.6.6 0 01.366.772h0a.6.6 0 01-.569.405h0A.5.5 0 01215.562 151.727zM12.455 144.251a.6.6 0 01.415-.742h0a.6.6 0 01.742.424h0a.61.61 0 01-.414.743h0a1.111 1.111 0 01-.164.019h0A.589.589 0 0112.455 144.251zm205.46.164a.592.592 0 01-.424-.733h0a.6.6 0 01.742-.425h0a.6.6 0 01.415.743h0a.608.608 0 01-.578.444h0A.427.427 0 01217.915 144.415zM10.661 136.746a.6.6 0 01.473-.713h0a.6.6 0 01.7.472h0a.591.591 0 01-.473.7h0a.5.5 0 01-.116.019h0A.606.606 0 0110.661 136.746zm209.058.213a.606.606 0 01-.473-.714v.01a.605.605 0 01.7-.482h0a.606.606 0 01.473.714h0a.6.6 0 01-.589.482h0A.483.483 0 01219.719 136.959zm-210.3-7.833a.6.6 0 01.521-.675h0a.613.613 0 01.675.521h0a.607.607 0 01-.521.675H10.015A.6.6 0 019.417 129.126zm211.566.26a.607.607 0 01-.53-.675h0a.612.612 0 01.675-.521h0a.6.6 0 01.521.675h0a.6.6 0 01-.6.53h0C221.031 129.4 221 129.386 220.982 129.386zM8.722 121.437h0a.6.6 0 01.569-.636h0a.61.61 0 01.637.569h0a.611.611 0 01-.57.637H9.33A.611.611 0 018.722 121.437zM221.7 121.746a.6.6 0 01-.578-.637h0a.611.611 0 01.637-.569h0a.605.605 0 01.569.637h0a.6.6 0 01-.6.569H221.7zM9.175 114.329a.612.612 0 01-.6-.618h0a.6.6 0 01.617-.588h0a.6.6 0 01.589.617h0a.6.6 0 01-.608.589h0zm212.068-.85h0a.6.6 0 01.589-.617h0a.6.6 0 01.617.589h0a.6.6 0 01-.589.617h-.019A.605.605 0 01221.243 113.479zM9.532 106.659A.607.607 0 018.982 106h0a.6.6 0 01.656-.54h0a.606.606 0 01.55.656v-.01a.608.608 0 01-.608.55H9.532zm211.286-.8a.606.606 0 01.55-.656h0a.6.6 0 01.656.54h0a.6.6 0 01-.549.656h0c-.02 0-.029.01-.048.01h0A.616.616 0 01220.818 105.859zm-210.38-6.82a.6.6 0 01-.492-.694h0a.586.586 0 01.685-.492h0a.594.594 0 01.5.685v.01a.6.6 0 01-.589.5h0A.408.408 0 0110.439 99.038zm209.415-.753a.616.616 0 01.5-.694h0a.6.6 0 01.694.5h0a.6.6 0 01-.5.685h0a.341.341 0 01-.1.009h0A.61.61 0 01219.854 98.286zM11.9 91.5a.607.607 0 01-.444-.724h0a.605.605 0 01.723-.454h0a.6.6 0 01.454.724h0a.607.607 0 01-.589.463h0A.757.757 0 0111.9 91.5zm206.454-.7H218.34a.6.6 0 01.453-.724h0a.605.605 0 01.724.444h0a.6.6 0 01-.444.724h0a.366.366 0 01-.145.02h0A.588.588 0 01218.349 90.8zM13.9 84.1a.614.614 0 01-.395-.762h0a.614.614 0 01.762-.395h0a.614.614 0 01.395.762h0a.62.62 0 01-.578.415h0A1 1 0 0113.9 84.1zm202.393-.646h0a.6.6 0 01.4-.752h0a.59.59 0 01.752.385h0a.609.609 0 01-.385.762h0a.64.64 0 01-.184.029h0A.6.6 0 01216.295 83.449zM16.439 76.833a.606.606 0 01-.338-.782h0a.609.609 0 01.791-.337h0a.6.6 0 01.328.781h0a.592.592 0 01-.56.386h0A.667.667 0 0116.439 76.833zm197.28-.569a.6.6 0 01.328-.782h0a.613.613 0 01.791.337h0a.61.61 0 01-.338.782h0a.652.652 0 01-.221.048h0A.591.591 0 01213.719 76.264zM19.5 69.781a.6.6 0 01-.28-.8h0a.61.61 0 01.81-.28h0a.6.6 0 01.28.8h0a.6.6 0 01-.541.348h0A.536.536 0 0119.5 69.781zM210.623 69.3h0a.609.609 0 01.28-.81h0a.612.612 0 01.81.28h0a.61.61 0 01-.28.81h0a.635.635 0 01-.261.058h0A.608.608 0 01210.623 69.3zM23.066 62.98a.6.6 0 01-.221-.83h0a.6.6 0 01.82-.212h0a.6.6 0 01.222.82h0a.612.612 0 01-.521.3h0A.633.633 0 0123.066 62.98zm183.968-.415a.6.6 0 01.222-.82h0a.588.588 0 01.819.213h0a.6.6 0 01-.212.829h0a.7.7 0 01-.309.077h0A.61.61 0 01207.033 62.565zM27.108 56.45a.607.607 0 01-.164-.839h0a.6.6 0 01.839-.164h0a.605.605 0 01.154.838h0a.58.58 0 01-.493.261h0A.6.6 0 0127.108 56.45zm175.864-.338h0a.6.6 0 01.154-.839h0a.6.6 0 01.839.154h0a.61.61 0 01-.155.839h0a.566.566 0 01-.347.106h0A.62.62 0 01202.972 56.112zM31.6 50.228a.61.61 0 01-.1-.849h0a.611.611 0 01.85-.106h0a.6.6 0 01.1.849h0a.594.594 0 01-.473.232h0A.629.629 0 0131.6 50.228zm166.845-.27a.59.59 0 01.1-.839h0a.592.592 0 01.849.1h0a.61.61 0 01-.1.849h0a.609.609 0 01-.376.125h0A.593.593 0 01198.449 49.957zM36.543 44.343a.606.606 0 01-.039-.849h0a.6.6 0 01.858-.039h0a.605.605 0 01.039.849H37.391a.6.6 0 01-.444.193h0A.59.59 0 0136.543 44.343zM193.5 44.15h0a.6.6 0 01.028-.85h0a.61.61 0 01.859.039h0a.6.6 0 01-.039.85h0a.6.6 0 01-.405.153h0A.573.573 0 01193.5 44.15zM41.9 38.835a.608.608 0 01.019-.858h0a.6.6 0 01.849.019h0a.609.609 0 01-.019.859h0a.63.63 0 01-.414.164h0A.577.577 0 0141.9 38.835zm146.24-.125a.6.6 0 01-.019-.849h0a.606.606 0 01.849-.029h0a.619.619 0 01.029.859h0a.612.612 0 01-.444.183h0A.583.583 0 01188.136 38.709zM47.616 33.722a.6.6 0 01.087-.849h0a.609.609 0 01.849.077h0a.6.6 0 01-.087.849h0a.591.591 0 01-.385.135h0A.583.583 0 0147.616 33.722zm134.791-.048V33.665a.588.588 0 01-.087-.839h0a.6.6 0 01.849-.087h0a.6.6 0 01.087.849h0a.6.6 0 01-.473.221h0A.642.642 0 01182.407 33.674zM53.693 29.024a.6.6 0 01.145-.839h0V28.2h0a.593.593 0 01.839.135h0a.614.614 0 01-.145.849h0a.633.633 0 01-.347.107h0A.592.592 0 0153.693 29.024zm122.626.029h.01a.6.6 0 01-.155-.839h0a.6.6 0 01.839-.145h0a.6.6 0 01.153.839h0a.625.625 0 01-.5.252h0A.589.589 0 01176.319 29.053zM60.09 24.79a.609.609 0 01.2-.83h0v.009h0a.6.6 0 01.829.2h0a.587.587 0 01-.2.82h0a.6.6 0 01-.309.087h0A.6.6 0 0160.09 24.79zm109.834.1h0a.609.609 0 01-.2-.829h0a.6.6 0 01.83-.2h0v-.01h0a.61.61 0 01.2.83h0a.61.61 0 01-.521.3h0A.6.6 0 01169.924 24.886zM66.774 21.027a.605.605 0 01.27-.81h0a.6.6 0 01.81.261h0a.607.607 0 01-.27.81h0a.535.535 0 01-.27.067h0A.594.594 0 0166.774 21.027zm96.465.154v.009a.608.608 0 01-.261-.82h0a.6.6 0 01.8-.261h0a.609.609 0 01.27.811h0a.6.6 0 01-.54.328h0A.562.562 0 01163.239 21.182zM73.71 17.757a.607.607 0 01.329-.791h0a.6.6 0 01.79.318h0a.607.607 0 01-.328.791h0a.658.658 0 01-.232.048h0A.618.618 0 0173.71 17.757zM156.3 17.979a.6.6 0 01-.328-.781h0a.61.61 0 01.791-.328h0a.608.608 0 01.328.791h0a.608.608 0 01-.56.366h0A.5.5 0 01156.3 17.979zM80.867 15a.6.6 0 01.377-.762h0a.6.6 0 01.762.377h0a.6.6 0 01-.377.762h0a.633.633 0 01-.192.028h0A.6.6 0 0180.867 15zm68.287.289h0a.6.6 0 01-.385-.761h0a.6.6 0 01.762-.377h0a.6.6 0 01.385.762h0a.62.62 0 01-.578.415h0A.419.419 0 01149.155 15.287zM88.218 12.761a.6.6 0 01.425-.734h0a.6.6 0 01.733.434h0a.6.6 0 01-.424.733h0a.443.443 0 01-.154.02h0A.6.6 0 0188.218 12.761zm53.615.367a.6.6 0 01-.444-.734h0a.62.62 0 01.743-.433h0a.614.614 0 01.434.733h0a.606.606 0 01-.589.453h0A.386.386 0 01141.833 13.127zM95.7 11.073a.6.6 0 01.482-.7h0a.609.609 0 01.7.482h0a.611.611 0 01-.492.7h0a.408.408 0 01-.106.009h0A.591.591 0 0195.7 11.073zm38.663.433a.6.6 0 01-.482-.694h0a.61.61 0 01.7-.492h0a.6.6 0 01.482.7h0a.6.6 0 01-.589.493h0A.427.427 0 01134.368 11.506zM103.286 9.924a.6.6 0 01.541-.666h0a.606.606 0 01.665.531h0a.606.606 0 01-.54.665h-.058A.606.606 0 01103.286 9.924zm23.528.5h0a.6.6 0 01-.531-.666h0a.591.591 0 01.657-.53h0a.59.59 0 01.54.656h0a.613.613 0 01-.6.55h0C126.862 10.436 126.843 10.426 126.814 10.426zm-15.869-1.1a.591.591 0 01.578-.626h0a.616.616 0 01.627.578h0a.613.613 0 01-.589.627h-.019A.6.6 0 01110.946 9.326zM119.2 9.9a.6.6 0 01-.588-.626h0a.616.616 0 01.627-.579h0a.6.6 0 01.579.627h0a.6.6 0 01-.6.578H119.2zM115.633 213.89a.475.475 0 01-.115.009h0a.714.714 0 01-.724-.714h0a.716.716 0 01.724-.723h0a.475.475 0 01.115.009h0a.5.5 0 01.126-.019h0a.729.729 0 01.724.724h0a.723.723 0 01-.724.724h0A.621.621 0 01115.633 213.89zm-7.832-.29l.01.01h0a.719.719 0 01-.666-.782h0a.722.722 0 01.772-.665h0a.731.731 0 01.666.781h0a.724.724 0 01-.714.666h0A.172.172 0 01107.8 213.6zm14.894-.674a.713.713 0 01.656-.782h0a.725.725 0 01.782.666h0a.73.73 0 01-.666.781h-.058A.723.723 0 01122.695 212.925zm-22.553-.213h0a.733.733 0 01-.608-.829h0a.735.735 0 01.83-.608h0a.735.735 0 01.608.829h0a.733.733 0 01-.714.618h0C100.219 212.723 100.18 212.712 100.141 212.712zm30.164-.646a.721.721 0 01.6-.829v.009a.721.721 0 01.83.6h0a.72.72 0 01-.6.829h0c-.039 0-.077.01-.116.01h0A.725.725 0 01130.305 212.066zm-37.736-.858h0a.728.728 0 01-.541-.868h0a.73.73 0 01.878-.53h0a.714.714 0 01.53.869h0a.721.721 0 01-.7.549h0A.515.515 0 0192.569 211.208zm45.261-.589a.713.713 0 01.53-.868h0a.729.729 0 01.878.53h0a.72.72 0 01-.541.868h0v.01h0a.863.863 0 01-.164.019h0A.719.719 0 01137.83 210.619zm-52.689-1.5a.72.72 0 01-.463-.917h0a.718.718 0 01.907-.463h0a.721.721 0 01.462.906h0a.711.711 0 01-.685.5h0A.8.8 0 0185.141 209.124zm60.068-.54a.739.739 0 01.463-.917h0a.737.737 0 01.917.463h0a.729.729 0 01-.464.917h0a.627.627 0 01-.221.039h0A.734.734 0 01145.209 208.584zm-67.323-2.132h0a.724.724 0 01-.385-.946h0a.716.716 0 01.945-.4h0a.724.724 0 01.386.946h0a.72.72 0 01-.666.444h0A.974.974 0 0177.887 206.452zm74.519-.482a.72.72 0 01.4-.946h0a.724.724 0 01.946.386h0a.72.72 0 01-.4.945h0a.683.683 0 01-.27.058h0A.723.723 0 01152.406 205.97zm-81.531-2.759h0a.72.72 0 01-.309-.974h0a.72.72 0 01.974-.318h0a.727.727 0 01.309.974h0a.716.716 0 01-.646.4h0A.683.683 0 0170.874 203.211zm88.5-.414a.732.732 0 01.318-.975h0a.724.724 0 01.974.319h0a.732.732 0 01-.309.975h0a.824.824 0 01-.337.076h0A.736.736 0 01159.371 202.8zM64.14 199.429h0a.733.733 0 01-.241-.994h0a.742.742 0 011-.241h0a.73.73 0 01.232 1h0a.716.716 0 01-.617.337h0A.677.677 0 0164.14 199.429zm101.934-.348a.722.722 0 01.232-.994h0a.733.733 0 011 .232h0a.741.741 0 01-.241 1h0a.763.763 0 01-.376.106h0A.728.728 0 01166.075 199.082zM57.726 195.137a.727.727 0 01-.164-1.013h0a.725.725 0 011.013-.154h0a.714.714 0 01.164 1h0a.714.714 0 01-.589.3h0A.676.676 0 0157.726 195.137zm114.734-.28a.715.715 0 01.164-1h0a.7.7 0 011 .155h0a.716.716 0 01-.154 1.013h0a.762.762 0 01-.424.136h0A.741.741 0 01172.461 194.857zm-120.8-4.5a.728.728 0 01-.077-1.022h0a.728.728 0 011.022-.077h0a.728.728 0 01.077 1.022h0a.733.733 0 01-.549.251h0A.75.75 0 0151.658 190.352zm126.842-.2a.729.729 0 01.076-1.022h.01a.71.71 0 011.013.076h0a.72.72 0 01-.077 1.014h0a.678.678 0 01-.473.183h0A.733.733 0 01178.5 190.149zM46 185.114a.728.728 0 010-1.023h0a.711.711 0 011.022 0h0a.728.728 0 010 1.023h0a.757.757 0 01-.511.212h0A.74.74 0 0146 185.114zm138.156-.145a.727.727 0 010-1.022h0a.728.728 0 011.023 0h0a.719.719 0 010 1.022h0a.7.7 0 01-.511.212h0A.714.714 0 01184.152 184.969zM40.758 179.442h-.01a.72.72 0 01.087-1.014h0a.723.723 0 011.023.077h0a.719.719 0 01-.087 1.013h0a.672.672 0 01-.463.184h0A.684.684 0 0140.758 179.442zm148.632-.068a.723.723 0 01-.087-1.023h0a.731.731 0 011.023-.076h0a.722.722 0 01.087 1.022h0a.737.737 0 01-.55.251h0A.718.718 0 01189.39 179.374zm-153.416-5.99a.721.721 0 01.154-1h0a.724.724 0 011.014.155h0a.723.723 0 01-.154 1.013h0a.719.719 0 01-.425.135h0A.687.687 0 0135.974 173.384zm158.2 0a.724.724 0 01-.165-1.013h0a.734.734 0 011.014-.164h0a.725.725 0 01.154 1.013h0a.707.707 0 01-.578.3h0A.676.676 0 01194.176 173.384zM31.681 166.978a.716.716 0 01.231-.993h0a.716.716 0 01.994.232h0a.718.718 0 01-.232.993h0a.673.673 0 01-.376.107h0A.705.705 0 0131.681 166.978zm166.787.058a.731.731 0 01-.241-.994h0a.734.734 0 011-.241h0a.721.721 0 01.232.994h0a.716.716 0 01-.617.348h0A.766.766 0 01198.468 167.037zM27.9 160.245a.725.725 0 01.318-.974h0a.731.731 0 01.974.318h0a.732.732 0 01-.318.974h0a.688.688 0 01-.328.077h0A.726.726 0 0127.9 160.245zm174.36.125a.723.723 0 01-.318-.974h0a.72.72 0 01.974-.309h0a.71.71 0 01.318.965h0a.738.738 0 01-.646.4h0A.673.673 0 01202.259 160.371zM24.667 153.242a.724.724 0 01.386-.946h0a.736.736 0 01.945.4h0a.72.72 0 01-.395.946h0a.685.685 0 01-.27.057h0A.729.729 0 0124.667 153.242zm180.843.183a.728.728 0 01-.4-.945v.009a.72.72 0 01.945-.4h0a.713.713 0 01.4.946h0a.72.72 0 01-.666.444h0A.723.723 0 01205.51 153.425zM22 146.017h0a.72.72 0 01.462-.917h0a.721.721 0 01.907.464h0a.727.727 0 01-.464.916h0a.85.85 0 01-.221.029h0A.715.715 0 0122 146.017zm186.215.232a.719.719 0 01-.473-.907h0a.728.728 0 01.907-.473h0a.726.726 0 01.472.917h0a.723.723 0 01-.694.5h0A.558.558 0 01208.211 146.249zm-188.319-7.66a.739.739 0 01.541-.878h0a.721.721 0 01.868.541h0a.718.718 0 01-.53.868h0a.984.984 0 01-.173.02h0A.732.732 0 0119.892 138.589zm190.431.3a.739.739 0 01-.54-.878h0a.723.723 0 01.878-.53h0a.715.715 0 01.53.868h0a.731.731 0 01-.7.559h0A1.111 1.111 0 01210.323 138.888zM18.4 131.017h0a.717.717 0 01.6-.83h0a.729.729 0 01.83.6h0a.731.731 0 01-.608.83h0a.408.408 0 01-.106.009h0A.724.724 0 0118.4 131.017zm193.45.357a.708.708 0 01-.6-.821h0a.726.726 0 01.82-.608h0a.735.735 0 01.608.83h0a.724.724 0 01-.714.608h0A.482.482 0 01211.847 131.374zM17.491 123.348a.721.721 0 01.665-.772h0a.724.724 0 01.782.665h0a.724.724 0 01-.666.772H18.214A.725.725 0 0117.491 123.348zm195.292.425a.723.723 0 01-.665-.772h0a.709.709 0 01.772-.665h0a.709.709 0 01.666.771h0a.717.717 0 01-.714.666h-.058zM17.191 115.64h0a.717.717 0 01.723-.723h0a.723.723 0 01.723.723h0a.729.729 0 01-.723.724h0A.722.722 0 0117.191 115.64zM212.4 115.4a.722.722 0 01.724-.724h0a.722.722 0 01.724.724h0a.729.729 0 01-.724.724h0A.729.729 0 01212.4 115.4zM18.146 108.7a.727.727 0 01-.666-.782h0a.726.726 0 01.782-.665h0a.73.73 0 01.665.781h0a.725.725 0 01-.723.666H18.146zm193.942-.907a.724.724 0 01.666-.781h0a.722.722 0 01.772.665h0a.718.718 0 01-.656.782h-.058A.726.726 0 01212.088 107.8zM18.976 101.084a.711.711 0 01-.6-.82h0a.719.719 0 01.82-.608h0a.733.733 0 01.608.829h0a.723.723 0 01-.713.608h0A.482.482 0 0118.976 101.084zm192.215-.839a.72.72 0 01.6-.829h0a.733.733 0 01.829.608h0a.72.72 0 01-.6.829h-.116A.723.723 0 01211.192 100.244zM20.4 93.559a.728.728 0 01-.54-.869h0a.73.73 0 01.878-.54h0a.719.719 0 01.53.868v.01a.722.722 0 01-.7.549h0A.52.52 0 0120.4 93.559zm189.3-.772h0a.72.72 0 01.53-.869h0a.715.715 0 01.868.53h.01a.743.743 0 01-.54.878h0a1.1 1.1 0 01-.174.02h0A.718.718 0 01209.706 92.788zM22.419 86.17a.72.72 0 01-.462-.917h0a.717.717 0 01.906-.463h0a.727.727 0 01.463.916h0a.725.725 0 01-.685.493h0A.847.847 0 0122.419 86.17zm185.212-.694h0a.72.72 0 01.463-.917h0a.721.721 0 01.906.462h0a.72.72 0 01-.463.917h0a.807.807 0 01-.222.039h0A.713.713 0 01207.632 85.476zM25.015 78.954a.727.727 0 01-.4-.945h0a.72.72 0 01.946-.4h0a.728.728 0 01.395.946h0a.718.718 0 01-.665.444h0A.682.682 0 0125.015 78.954zm179.975-.608a.723.723 0 01.385-.945h0a.72.72 0 01.946.4h0a.723.723 0 01-.386.945h0a.724.724 0 01-.28.058h0A.728.728 0 01204.989 78.346zM28.169 71.96a.729.729 0 01-.318-.974h0a.729.729 0 01.975-.308h0a.718.718 0 01.318.974h0a.725.725 0 01-.646.385h0A.679.679 0 0128.169 71.96zm173.618-.5a.723.723 0 01.318-.974h0a.72.72 0 01.974.308h0a.724.724 0 01-.318.975h0a.663.663 0 01-.328.077h0A.727.727 0 01201.786 71.459zM31.874 65.246a.714.714 0 01-.241-.993h0a.729.729 0 01.993-.241h0a.731.731 0 01.241.993h0a.726.726 0 01-.617.348h0A.653.653 0 0131.874 65.246zm166.189-.414a.72.72 0 01.232-.994h0a.712.712 0 01.994.241h0a.722.722 0 01-.232.994h0a.763.763 0 01-.376.106h0A.716.716 0 01198.062 64.832zM36.088 58.842a.706.706 0 01-.164-1h0V57.829h0a.732.732 0 011.014-.154h0a.732.732 0 01.154 1.013h0a.728.728 0 01-.588.289h0A.672.672 0 0136.088 58.842zm157.73-.318h0a.724.724 0 01.164-1.013h0a.734.734 0 011.013.155h-.009a.714.714 0 01-.154 1.013h0a.7.7 0 01-.425.135h0A.729.729 0 01193.819 58.523zM40.786 52.794a.724.724 0 01-.087-1.023h0a.731.731 0 011.023-.087h0a.729.729 0 01.076 1.022h0a.709.709 0 01-.549.261h0A.716.716 0 0140.786 52.794zM189.1 52.562h0a.731.731 0 01.077-1.023h0a.731.731 0 011.023.077h0a.722.722 0 01-.077 1.023h0a.736.736 0 01-.473.173h0A.737.737 0 01189.1 52.562zM45.937 47.121a.727.727 0 010-1.022h0a.728.728 0 011.023 0h0a.711.711 0 010 1.022h0a.684.684 0 01-.512.213h0A.717.717 0 0145.937 47.121zm137.993-.135a.74.74 0 010-1.032h0a.727.727 0 011.022 0h0a.728.728 0 010 1.023h0a.718.718 0 01-.512.212h0A.747.747 0 01183.931 46.986zM51.523 41.874a.732.732 0 01.077-1.023h0a.732.732 0 011.023.077h0a.731.731 0 01-.077 1.023h0a.754.754 0 01-.473.173h0A.736.736 0 0151.523 41.874zm126.813-.048h0a.73.73 0 01-.076-1.023h0a.73.73 0 011.022-.077h-.009a.713.713 0 01.087 1.014h0a.714.714 0 01-.55.26h0A.735.735 0 01178.335 41.826zM57.494 37.08a.725.725 0 01.164-1.014h0a.727.727 0 011.013.165h0a.713.713 0 01-.164 1h0a.7.7 0 01-.424.145h0A.743.743 0 0157.494 37.08zm114.87.039A.727.727 0 01172.2 36.1h0a.723.723 0 011.013-.154h0v-.01h0a.737.737 0 01.164 1.014h0a.714.714 0 01-.589.3h0A.677.677 0 01172.365 37.118zM63.832 32.767a.73.73 0 01.231-1h0a.731.731 0 01.994.241h0a.721.721 0 01-.232.994h0a.676.676 0 01-.376.106h0A.705.705 0 0163.832 32.767zm102.2.125a.715.715 0 01-.241-.993h0a.723.723 0 01.994-.241h0a.731.731 0 01.241.993h0a.705.705 0 01-.617.348h0A.657.657 0 01166.036 32.892zM70.478 28.957a.723.723 0 01.309-.975h0v.01h0a.719.719 0 01.974.308h0a.728.728 0 01-.309.974h0a.673.673 0 01-.328.077h0A.715.715 0 0170.478 28.957zm88.911.221a.72.72 0 01-.309-.974h0a.71.71 0 01.965-.318h0a.723.723 0 01.318.974h0a.726.726 0 01-.646.4h0A.819.819 0 01159.39 29.179zM77.395 25.7a.729.729 0 01.4-.945h0a.722.722 0 01.945.386h0a.723.723 0 01-.385.945h0a.766.766 0 01-.28.057h0A.723.723 0 0177.395 25.7zM152.483 26h-.009a.725.725 0 01-.386-.946h0a.724.724 0 01.946-.385h0V24.655h0a.723.723 0 01.386.945h0a.719.719 0 01-.666.453h0A.681.681 0 01152.483 26zm-67.921-3.01a.72.72 0 01.463-.917h0a.721.721 0 01.906.463h0a.72.72 0 01-.462.917h0a.918.918 0 01-.222.038h0A.725.725 0 0184.562 22.986zm60.773.386a.715.715 0 01-.463-.907h0a.722.722 0 01.906-.473h0a.728.728 0 01.463.917h0a.723.723 0 01-.685.5h0A.613.613 0 01145.335 23.372zM91.913 20.844a.721.721 0 01.541-.869h0V19.966h0a.725.725 0 01.868.54h0a.714.714 0 01-.53.869h0a.546.546 0 01-.173.019h0A.73.73 0 0191.913 20.844zm46.1.482h0a.735.735 0 01-.54-.878h0a.732.732 0 01.868-.541h0a.724.724 0 01.541.878h0a.731.731 0 01-.7.56h0A.975.975 0 01138.013 21.327zm-38.6-2.036a.721.721 0 01.6-.83h0a.731.731 0 01.83.609h0a.708.708 0 01-.6.82h0a.483.483 0 01-.116.009h0A.723.723 0 0199.418 19.291zm31.129.569a.72.72 0 01-.6-.829h0a.72.72 0 01.82-.609h0a.735.735 0 01.608.83h0a.723.723 0 01-.714.608h-.116zm-23.527-1.524a.719.719 0 01.666-.781h0a.722.722 0 01.771.665h0A.718.718 0 01107.8 19h-.058A.726.726 0 01107.019 18.336zm15.975.646h0a.722.722 0 01-.666-.771h0a.727.727 0 01.781-.675h0a.738.738 0 01.666.782h0a.725.725 0 01-.724.665h-.057zm-8.326-1a.731.731 0 01.724-.733h0a.722.722 0 01.724.724h0a.716.716 0 01-.724.723h0A.721.721 0 01114.669 17.979zM114.669 204.435a.857.857 0 01.85-.849v.01h.1c.029 0 .068-.01.106-.01h0a.851.851 0 01.849.849h0a.84.84 0 01-.839.839h-.212A.848.848 0 01114.669 204.435zm-6.858.521a.85.85 0 01-.772-.916h0a.851.851 0 01.916-.772h0a.837.837 0 01.762.917h0a.84.84 0 01-.839.772h-.067zm14.711-.79a.849.849 0 01.762-.917h0a.852.852 0 01.917.772h0a.85.85 0 01-.762.917h-.077A.84.84 0 01122.521 204.166zm-22.361-.193A.853.853 0 0199.466 203h0a.848.848 0 01.974-.7h0a.849.849 0 01.7.975h0a.856.856 0 01-.839.7h0A.663.663 0 01100.16 203.973zm29.943-.724a.86.86 0 01.685-.984h0a.859.859 0 01.984.685h0a.859.859 0 01-.685.984h0a.9.9 0 01-.155.01h0A.854.854 0 01130.1 203.249zm-37.485-.917a.843.843 0 01-.6-1.032h0a.841.841 0 011.022-.608h0a.851.851 0 01.608 1.032h0a.846.846 0 01-.82.627h0A.766.766 0 0192.617 202.333zm44.972-.656a.833.833 0 01.6-1.032h0a.838.838 0 011.032.6h0a.849.849 0 01-.6 1.032h0a.9.9 0 01-.221.028h0A.833.833 0 01137.589 201.677zm-52.342-1.64v.009h0a.848.848 0 01-.511-1.081h0a.841.841 0 011.08-.511h0a.848.848 0 01.511 1.08h0a.862.862 0 01-.8.56h0A.766.766 0 0185.247 200.037zm59.654-.569a.841.841 0 01.511-1.081h0a.841.841 0 011.081.5h0a.841.841 0 01-.512 1.081h0a.738.738 0 01-.279.048h0A.854.854 0 01144.9 199.468zm-66.8-2.345a.842.842 0 01-.415-1.118h0a.844.844 0 011.119-.415h0a.843.843 0 01.414 1.119h0a.844.844 0 01-.771.492h0A.746.746 0 0178.1 197.123zm73.9-.492a.84.84 0 01.405-1.119V195.5a.858.858 0 011.129.415h0a.843.843 0 01-.415 1.119h0a.79.79 0 01-.357.077h0A.823.823 0 01152 196.632zM71.231 193.6a.843.843 0 01-.318-1.148h0a.833.833 0 011.147-.319h0a.839.839 0 01.318 1.148h0a.85.85 0 01-.733.425h0A.8.8 0 0171.231 193.6zm87.59-.415a.841.841 0 01.318-1.148h0a.845.845 0 011.147.309h0a.856.856 0 01-.308 1.157h0a.842.842 0 01-.425.106h0A.851.851 0 01158.821 193.188zM64.691 189.5h0a.851.851 0 01-.222-1.177h0a.842.842 0 011.178-.213h0a.84.84 0 01.221 1.167h0a.848.848 0 01-.7.367h0A.855.855 0 0164.691 189.5zm100.632-.328a.852.852 0 01.221-1.177h0a.84.84 0 011.167.222h0a.841.841 0 01-.212 1.177h0a.856.856 0 01-.482.145h0A.843.843 0 01165.323 189.175zm-106.8-4.322h0a.851.851 0 01-.116-1.186h0a.833.833 0 011.186-.116h0a.832.832 0 01.116 1.186h0a.832.832 0 01-.646.309h0A.881.881 0 0158.527 184.853zm112.941-.232a.839.839 0 01.106-1.186h0a.842.842 0 011.187.106h0a.842.842 0 01-.106 1.186h0a.821.821 0 01-.54.2h0A.832.832 0 01171.468 184.622zM52.787 179.693a.839.839 0 01-.02-1.187h0a.842.842 0 011.2-.019h0a.85.85 0 01.02 1.2h0a.841.841 0 01-.608.251h0A.823.823 0 0152.787 179.693zm124.4-.145a.838.838 0 01.009-1.186h0a.842.842 0 011.2.009h0a.851.851 0 01-.009 1.2h0a.867.867 0 01-.589.241h0A.83.83 0 01177.188 179.548zM47.511 174.069h0a.832.832 0 01.087-1.187h0a.832.832 0 011.186.088h0a.831.831 0 01-.087 1.186h0a.846.846 0 01-.55.2h0A.822.822 0 0147.511 174.069zm134.954-.048a.853.853 0 01-.1-1.2h0a.843.843 0 011.2-.087h0a.849.849 0 01.087 1.186h0a.849.849 0 01-.637.3h0A.828.828 0 01182.464 174.021zm-139.738-6.01a.846.846 0 01.192-1.177h0a.83.83 0 011.177.193h0A.849.849 0 0143.9 168.2h0a.826.826 0 01-.492.155h0A.832.832 0 0142.726 168.011zm144.513.039a.847.847 0 01-.193-1.177h0a.846.846 0 011.177-.193h0a.846.846 0 01.193 1.177h0a.832.832 0 01-.685.348h0A.846.846 0 01187.239 168.049zM38.481 161.567a.845.845 0 01.289-1.158h0a.856.856 0 011.167.289h0a.848.848 0 01-.3 1.158h0a.777.777 0 01-.425.125h0A.874.874 0 0138.481 161.567zm153.012.125a.849.849 0 01-.3-1.158h0a.847.847 0 011.158-.289h0a.838.838 0 01.3 1.148h0a.854.854 0 01-.734.415h0A.85.85 0 01191.494 161.692zM34.816 154.785h0a.846.846 0 01.385-1.129h0a.837.837 0 011.129.386h0a.849.849 0 01-.385 1.129h0a.9.9 0 01-.377.087h0A.835.835 0 0134.816 154.785zM195.178 155a.852.852 0 01-.395-1.129h.009a.834.834 0 011.119-.4h0a.843.843 0 01.4 1.129h0a.841.841 0 01-.762.472h0A.8.8 0 01195.178 155zM31.738 147.7a.841.841 0 01.492-1.09h0a.846.846 0 011.091.492h0a.857.857 0 01-.493 1.09h0a1.063 1.063 0 01-.3.048h0A.852.852 0 0131.738 147.7zM198.275 148a.839.839 0 01-.482-1.09h-.01a.853.853 0 011.09-.492h0a.842.842 0 01.493 1.09h0a.842.842 0 01-.791.541h0A.807.807 0 01198.275 148zM29.288 140.393h0a.859.859 0 01.579-1.051h0a.844.844 0 011.042.578h.009a.858.858 0 01-.579 1.051h0A1.063 1.063 0 0130.1 141h0A.845.845 0 0129.288 140.393zm171.466.376a.848.848 0 01-.578-1.042h0a.829.829 0 011.042-.578h0a.83.83 0 01.578 1.042h0a.845.845 0 01-.81.608h0A.93.93 0 01200.754 140.769zm-173.27-7.881h0a.853.853 0 01.666-.993h0a.858.858 0 01.994.665h0a.848.848 0 01-.666.994h0a.974.974 0 01-.164.019h0A.846.846 0 0127.484 132.888zm175.122.464a.843.843 0 01-.675-.984h0a.847.847 0 01.994-.674h0a.848.848 0 01.666.993h0a.846.846 0 01-.83.685h0A.866.866 0 01202.606 133.351zM26.327 125.257h.009a.831.831 0 01.742-.926h0a.837.837 0 01.926.743h0a.833.833 0 01-.742.936h-.1A.844.844 0 0126.327 125.257zm177.466.55a.859.859 0 01-.753-.935h0a.84.84 0 01.935-.743h0a.834.834 0 01.753.926h-.009a.829.829 0 01-.83.753h-.1zM25.834 117.56a.841.841 0 01.83-.858h0a.833.833 0 01.858.82h0a.85.85 0 01-.829.868h-.01A.847.847 0 0125.834 117.56zm178.508.617a.848.848 0 01-.829-.858h0a.848.848 0 01.858-.83h0a.851.851 0 01.83.869h0v-.01h0a.844.844 0 01-.839.829h-.02zM26.78 110.739a.835.835 0 01-.782-.9h0a.833.833 0 01.887-.781h0a.84.84 0 01.791.887v.009a.835.835 0 01-.839.781H26.78zm176.56-.993a.85.85 0 01.79-.9h0a.851.851 0 01.9.791h0a.857.857 0 01-.791.9h-.058A.849.849 0 01203.34 109.746zM27.522 103.138a.854.854 0 01-.713-.965h0a.85.85 0 01.965-.714h0a.855.855 0 01.7.965h0a.842.842 0 01-.839.723h0C27.6 103.148 27.561 103.138 27.522 103.138zm175-.917a.855.855 0 01.714-.965h0a.842.842 0 01.955.714h0a.832.832 0 01-.7.955h0a.562.562 0 01-.125.009h0A.85.85 0 01202.519 102.221zM28.9 95.614a.829.829 0 01-.618-1.013h0a.842.842 0 011.013-.627h0A.852.852 0 0129.925 95h0a.852.852 0 01-.819.646h0A.748.748 0 0128.9 95.614zm172.16-.82a.858.858 0 01.617-1.023h0a.856.856 0 011.023.627h0a.836.836 0 01-.618 1.013h0a.744.744 0 01-.2.029h0A.852.852 0 01201.063 94.794zM30.937 88.254a.841.841 0 01-.53-1.071h0a.839.839 0 011.061-.54h0a.854.854 0 01.541 1.07h0a.857.857 0 01-.81.579h0A1.245 1.245 0 0130.937 88.254zm168.023-.733a.85.85 0 01.54-1.071h0a.845.845 0 011.061.53h0a.838.838 0 01-.53 1.071h0a.827.827 0 01-.27.048h0A.854.854 0 01198.96 87.521zM33.6 81.077a.851.851 0 01-.444-1.109h0a.845.845 0 011.119-.434h0a.842.842 0 01.434 1.109h0a.838.838 0 01-.772.5h0A.82.82 0 0133.6 81.077zm162.64-.617h.009a.838.838 0 01.434-1.11h0a.848.848 0 011.11.434h0a.848.848 0 01-.434 1.11h0a.866.866 0 01-.338.077h0A.86.86 0 01196.24 80.459zM36.87 74.169a.85.85 0 01-.338-1.147h0a.844.844 0 011.148-.338h0a.842.842 0 01.337 1.139h0a.852.852 0 01-.742.444h0A.887.887 0 0136.87 74.169zm156.05-.511a.847.847 0 01.348-1.148h0a.841.841 0 011.138.338h0A.841.841 0 01194.069 74h0a.844.844 0 01-.405.106h0A.853.853 0 01192.921 73.659zm-152.192-6.1a.84.84 0 01-.241-1.167h0a.841.841 0 011.167-.241h0a.833.833 0 01.241 1.167h0a.845.845 0 01-.7.386h0A.82.82 0 0140.729 67.562zm148.3-.4h0A.832.832 0 01189.275 66h0a.835.835 0 011.167.241h0a.852.852 0 01-.241 1.167h0a.829.829 0 01-.464.136h0A.857.857 0 01189.034 67.166zm-143.9-5.845A.844.844 0 0145 60.134h0a.834.834 0 011.177-.144h0a.844.844 0 01.145 1.186h0a.836.836 0 01-.666.318h0A.863.863 0 0145.138 61.321zM184.6 61.032h0a.844.844 0 01.136-1.187h0a.845.845 0 011.186.145h0a.833.833 0 01-.135 1.177h0a.82.82 0 01-.521.183h0A.836.836 0 01184.6 61.032zM50.066 55.475a.85.85 0 01-.039-1.2h0a.841.841 0 011.2-.039h0a.85.85 0 01.039 1.2h0a.868.868 0 01-.617.261h0A.867.867 0 0150.066 55.475zM179.648 55.3a.851.851 0 01.039-1.2h0a.851.851 0 011.2.039h-.01a.831.831 0 01-.029 1.187h0a.851.851 0 01-.579.231h0A.855.855 0 01179.648 55.3zM55.478 50.064a.832.832 0 01.057-1.187h0a.851.851 0 011.2.058h0a.85.85 0 01-.068 1.2h0a.845.845 0 01-.56.213h0A.8.8 0 0155.478 50.064zm118.748-.058a.83.83 0 01-.057-1.186h0a.838.838 0 011.186-.068h0a.84.84 0 01.068 1.187h0a.822.822 0 01-.627.289h0A.861.861 0 01174.226 50.005zm-112.9-4.862a.844.844 0 01.164-1.177h0a.846.846 0 011.187.164h0a.844.844 0 01-.164 1.177h0a.862.862 0 01-.512.174h0A.832.832 0 0161.324 45.143zM168.381 45.2a.836.836 0 01-.164-1.187h0a.842.842 0 011.177-.164h0a.846.846 0 01.164 1.187h0a.85.85 0 01-.675.328h0A.821.821 0 01168.381 45.2zM67.575 40.745a.844.844 0 01.26-1.167h0v.009h0A.844.844 0 0169 39.848h0a.853.853 0 01-.26 1.167h0a.874.874 0 01-.453.125h0A.825.825 0 0167.575 40.745zm94.564.164h0a.834.834 0 01-.269-1.158h0a.847.847 0 011.167-.27h0a.839.839 0 01.26 1.167h0a.843.843 0 01-.713.4h0A.83.83 0 01162.139 40.909zM74.173 36.9a.847.847 0 01.366-1.138h0a.846.846 0 011.138.366h0a.846.846 0 01-.366 1.138h0a.892.892 0 01-.385.087h0A.847.847 0 0174.173 36.9zm81.378.28h0a.847.847 0 01-.367-1.138h0a.844.844 0 011.139-.366h0a.847.847 0 01.366 1.138h0a.857.857 0 01-.753.453h0A.9.9 0 01155.551 37.176zM81.09 33.635a.837.837 0 01.453-1.1h0a.837.837 0 011.1.453h0a.837.837 0 01-.454 1.1h0a.768.768 0 01-.328.068h0A.822.822 0 0181.09 33.635zm67.573.386a.848.848 0 01-.463-1.1h0a.833.833 0 011.1-.463h0a.842.842 0 01.464 1.1h0a.847.847 0 01-.782.521h0A.925.925 0 01148.663 34.022zM88.257 30.973a.831.831 0 01.55-1.051h0a.844.844 0 011.061.549h0a.858.858 0 01-.56 1.062h0a.771.771 0 01-.251.039h0A.834.834 0 0188.257 30.973zm53.268.5h.009a.851.851 0 01-.56-1.061h0a.844.844 0 011.051-.559h0a.858.858 0 01.56 1.061h0a.848.848 0 01-.81.589h0A1.143 1.143 0 01141.525 31.474zM95.617 28.947a.848.848 0 01.647-1h0a.858.858 0 011.013.646h0a.847.847 0 01-.646 1h0a.582.582 0 01-.184.02h0A.855.855 0 0195.617 28.947zM134.2 29.555V29.545a.838.838 0 01-.646-.994h0a.838.838 0 011-.646h0a.828.828 0 01.646 1h0a.843.843 0 01-.82.666h0A1.113 1.113 0 01134.2 29.555zm-31.061-1.987a.839.839 0 01.724-.946h.009a.858.858 0 01.945.734h0a.851.851 0 01-.733.945h0c-.039 0-.068.009-.106.009h0A.851.851 0 01103.142 27.568zm23.6.7h0a.846.846 0 01-.733-.946h0a.845.845 0 01.945-.733h0a.851.851 0 01.733.945h0a.858.858 0 01-.838.743h0A.408.408 0 01126.746 28.272zm-15.994-1.428a.823.823 0 01.8-.878h0a.835.835 0 01.878.8h0a.842.842 0 01-.8.878h-.039A.832.832 0 01110.752 26.844zm7.64-.087a.848.848 0 01.878-.81h0v.01h0a.842.842 0 01.81.878h0a.841.841 0 01-.878.8v.009A.858.858 0 01118.392 26.758zM114.554 195.687a.967.967 0 01.965-.965h0a.273.273 0 01.087.01h0a.267.267 0 01.087-.01H115.7a.968.968 0 01.965.965h0a.968.968 0 01-.965.965h-.183A.967.967 0 01114.554 195.687zm1.147.965h0zm-7.775-.348a.964.964 0 01-.869-1.051h0a.964.964 0 011.051-.868h0a.961.961 0 01.868 1.042h0a.97.97 0 01-.955.878h-.1zm14.306-.887a.97.97 0 01.868-1.051h0a.979.979 0 011.062.868h0a.965.965 0 01-.868 1.052h0c-.039 0-.068.009-.1.009h0A.972.972 0 01122.232 195.416zm-21.831-.173v.009h0a.978.978 0 01-.772-1.129h0a.97.97 0 011.129-.771h0a.96.96 0 01.772 1.129h0a.961.961 0 01-.946.781h0A.614.614 0 01100.4 195.243zm29.278-.8a.976.976 0 01.772-1.129h0a.976.976 0 011.129.771h0a.977.977 0 01-.772 1.129h0a1.087 1.087 0 01-.173.019h0A.971.971 0 01129.679 194.442zm-36.666-.955h0a.959.959 0 01-.657-1.2h0a.957.957 0 011.187-.656h0a.972.972 0 01.665 1.2h0a.969.969 0 01-.935.694h0A.8.8 0 0193.013 193.487zm43.988-.7a.966.966 0 01.656-1.2h0a.958.958 0 011.2.656h0a.959.959 0 01-.656 1.2h0a1.339 1.339 0 01-.27.039h0A.978.978 0 01137 192.782zm-51.184-1.746a.953.953 0 01-.541-1.244h0a.959.959 0 011.244-.55h0a.965.965 0 01.55 1.255h0a.98.98 0 01-.9.608h0A.9.9 0 0185.817 191.037zm58.312-.608a.973.973 0 01.55-1.254h0a.961.961 0 011.244.54h0a.952.952 0 01-.54 1.254h0a.879.879 0 01-.348.068h0A.983.983 0 01144.129 190.429zm-65.248-2.508v.009h0a.977.977 0 01-.425-1.3h0a.975.975 0 011.3-.424h0a.971.971 0 01.424 1.3h0a.976.976 0 01-.858.521h0A.921.921 0 0178.881 187.922zm72.136-.5a.951.951 0 01.415-1.292h0a.97.97 0 011.3.415h0a.974.974 0 01-.424 1.3h0a1 1 0 01-.434.106h0A.946.946 0 01151.017 187.419zm-78.744-3.251a.964.964 0 01-.3-1.331h0a.977.977 0 011.331-.3h0a.958.958 0 01.3 1.331h0a.962.962 0 01-.81.453h0A.934.934 0 0172.273 184.168zm85.3-.4a.956.956 0 01.3-1.322v-.01a.977.977 0 011.332.3h0a.957.957 0 01-.3 1.331h0a.911.911 0 01-.512.154h0A.977.977 0 01157.576 183.773zm-91.525-3.955h0a.968.968 0 01-.184-1.351h0a.969.969 0 011.36-.173h0a.974.974 0 01.173 1.351h0a.976.976 0 01-.762.376h0A.947.947 0 0166.051 179.818zm97.728-.28a.976.976 0 01.164-1.36h0a.986.986 0 011.36.173h0a.986.986 0 01-.173 1.36h0a.985.985 0 01-.589.2h0A.965.965 0 01163.779 179.538zM60.254 174.9a.961.961 0 01-.049-1.36h0a.962.962 0 011.36-.049h0a.952.952 0 01.048 1.36h0a.95.95 0 01-.7.309h0A.958.958 0 0160.254 174.9zm109.294-.165a.964.964 0 01.048-1.37h0a.97.97 0 011.36.049h0a.965.965 0 01-.048 1.37h0v-.01h0a.943.943 0 01-.657.261h0A.957.957 0 01169.548 174.734zm-114.61-5.267a.97.97 0 01.077-1.359h0a.974.974 0 011.37.076h0a.963.963 0 01-.087 1.36h0a.937.937 0 01-.637.241h0A.966.966 0 0154.938 169.467zm119.906-.048a.973.973 0 01-.077-1.37h0a.961.961 0 011.359-.077h0a.963.963 0 01.088 1.36h0a.994.994 0 01-.723.328h0A1.03 1.03 0 01174.844 169.419zM50.163 163.564h0a.959.959 0 01.2-1.351h0a.968.968 0 011.35.2h0a.97.97 0 01-.212 1.351h0a.942.942 0 01-.569.192h0A.958.958 0 0150.163 163.564zm129.465.058a.967.967 0 01-.2-1.351h0a.966.966 0 011.35-.2h0a.967.967 0 01.2 1.351h0a.966.966 0 01-.781.4h0A.986.986 0 01179.629 163.622zM45.948 157.236a.96.96 0 01.328-1.322h0a.971.971 0 011.331.328h0a.962.962 0 01-.337 1.322h0a.936.936 0 01-.493.145h0A.976.976 0 0145.948 157.236zm137.906.184a.97.97 0 01-.328-1.331h0a.965.965 0 011.321-.329h0a.969.969 0 01.329 1.322h0a.967.967 0 01-.83.473h0A1.022 1.022 0 01183.854 157.419zm-141.5-6.878h0a.957.957 0 01.453-1.283h0a.957.957 0 011.283.453h0a.957.957 0 01-.453 1.283h0a.909.909 0 01-.415.1h0A.962.962 0 0142.349 150.541zm145.131.3a.981.981 0 01-.464-1.292h0a.969.969 0 011.293-.453h0a.965.965 0 01.453 1.282h0a.965.965 0 01-.878.55h0A1.028 1.028 0 01187.481 150.84zM39.4 143.548h0a.967.967 0 01.569-1.244h0a.962.962 0 011.235.578h0a.962.962 0 01-.57 1.235h0a.987.987 0 01-.337.058h0A.954.954 0 0139.4 143.548zm151.063.395a.964.964 0 01-.569-1.234h0a.963.963 0 011.235-.579h0a.973.973 0 01.578 1.244h0a.976.976 0 01-.906.627h0A1.039 1.039 0 01190.461 143.942zm-153.35-7.649a.965.965 0 01.685-1.177h0a.975.975 0 011.186.685h0a.974.974 0 01-.694 1.186h0a1.01 1.01 0 01-.241.029h0A.967.967 0 0137.111 136.293zM192.8 136.8a.962.962 0 01-.694-1.177h0a.967.967 0 011.177-.685h0a.963.963 0 01.685 1.177h0a.946.946 0 01-.926.713h0A1.055 1.055 0 01192.8 136.8zM35.519 128.865h0a.968.968 0 01.8-1.109h0a.968.968 0 011.11.79h0a.963.963 0 01-.8 1.11h0a.866.866 0 01-.154.019h0A.971.971 0 0135.519 128.865zm158.916.618a.969.969 0 01-.8-1.11h0a.963.963 0 011.11-.8h0a.962.962 0 01.79 1.11h0a.962.962 0 01-.945.81h0C194.532 129.493 194.484 129.483 194.436 129.483zM34.641 121.322a.963.963 0 01.9-1.032h0a.961.961 0 011.022.9h0a.962.962 0 01-.887 1.032H35.606A.963.963 0 0134.641 121.322zm160.74.7a.949.949 0 01-.9-1.022h0a.956.956 0 011.023-.9h0a.965.965 0 01.9 1.032h0a.96.96 0 01-.955.9h0A.142.142 0 01195.381 122.026zM35.4 114.714a.982.982 0 01-.945-.994h0a.959.959 0 01.984-.936h0a.956.956 0 01.946.984h0a.969.969 0 01-.965.945H35.4zm159.235-1.129h0a.959.959 0 01.936-.983h0a.955.955 0 01.994.935h0a.975.975 0 01-.935.994H195.6A.97.97 0 01194.638 113.585zm-158.81-6.377a.962.962 0 01-.849-1.061h0a.964.964 0 011.07-.849h0a.966.966 0 01.85 1.071h0a.96.96 0 01-.955.849h0A.437.437 0 0135.828 107.209zm158.289-1.022h-.01a.972.972 0 01.849-1.071h0a.967.967 0 011.071.849h0v-.01h0a.982.982 0 01-.839 1.081h-.125A.95.95 0 01194.117 106.187zm-157.16-6.4a.963.963 0 01-.742-1.148h0v.01h0a.958.958 0 011.138-.753h0a.966.966 0 01.742 1.147h0a.956.956 0 01-.935.762h0A.74.74 0 0136.957 99.791zm155.935-.917a.968.968 0 01.742-1.147h0a.967.967 0 011.148.742h0a.976.976 0 01-.743 1.148h0a1.459 1.459 0 01-.2.019h0A.967.967 0 01192.893 98.874zM38.77 92.508a.963.963 0 01-.626-1.216h0a.957.957 0 011.206-.626h0a.953.953 0 01.627 1.206h0a.958.958 0 01-.917.675h0A1.025 1.025 0 0138.77 92.508zM191 91.7a.956.956 0 01.626-1.206h0a.948.948 0 011.206.627h0a.963.963 0 01-.626 1.215h0a.993.993 0 01-.29.039h0A.956.956 0 01191 91.7zM41.269 85.417a.961.961 0 01-.521-1.254h0a.973.973 0 011.264-.521h0a.973.973 0 01.521 1.264h0a.967.967 0 01-.9.588h0A.858.858 0 0141.269 85.417zm147.167-.675a.958.958 0 01.511-1.263h0a.96.96 0 011.264.511h0a.957.957 0 01-.512 1.263h0a.868.868 0 01-.376.077h0A.961.961 0 01188.436 84.742zM44.424 78.607a.969.969 0 01-.4-1.312h0a.956.956 0 011.3-.385h0a.957.957 0 01.4 1.3h0a.964.964 0 01-.849.512h0A.957.957 0 0144.424 78.607zm140.8-.55a.963.963 0 01.385-1.3h0a.958.958 0 011.312.385h0a.972.972 0 01-.4 1.312h0a.957.957 0 01-.453.116h0A.952.952 0 01185.223 78.057zM48.2 72.115a.964.964 0 01-.28-1.331h0V70.774h0a.974.974 0 011.34-.27h0a.967.967 0 01.27 1.341h0a.961.961 0 01-.8.433h0A.975.975 0 0148.2 72.115zM181.4 71.7a.95.95 0 01.26-1.331h0a.964.964 0 011.342.26h0a.967.967 0 01-.27 1.341h0a.985.985 0 01-.53.164h0A.949.949 0 01181.4 71.7zM52.565 66.009a.974.974 0 01-.135-1.359h0a.963.963 0 011.351-.145h0a.966.966 0 01.144 1.36h0a.984.984 0 01-.753.357h0A.972.972 0 0152.565 66.009zm124.43-.28a.965.965 0 01.145-1.359h0a.961.961 0 011.35.144h0a.965.965 0 01-.135 1.36h0a.97.97 0 01-.608.212h0A.984.984 0 01176.995 65.729zm-119.5-5.392a.964.964 0 01-.02-1.37h0a.961.961 0 011.36-.009h0a.96.96 0 01.02 1.36h0a.978.978 0 01-.694.289h0A.934.934 0 0157.494 60.337zm114.561-.144a.952.952 0 01.02-1.36h0a.961.961 0 011.36.009h0a.981.981 0 01-.01 1.37h0a.971.971 0 01-.675.27h0A.982.982 0 01172.056 60.192zm1.38-1.351h0zM62.916 55.147a.963.963 0 01.106-1.36h.01a.951.951 0 011.35.106h0a.964.964 0 01-.105 1.36h0a.971.971 0 01-.627.232h0A.971.971 0 0162.916 55.147zm103.709-.01h0a.953.953 0 01-.116-1.351h0a.957.957 0 011.36-.116h0a.973.973 0 01.116 1.36h0a.978.978 0 01-.743.338h0A.965.965 0 01166.625 55.137zM68.8 50.478a.962.962 0 01.241-1.34h0a.955.955 0 011.341.241h0a.954.954 0 01-.241 1.34h.009a1 1 0 01-.56.173h0A.974.974 0 0168.8 50.478zm91.941.135a.957.957 0 01-.232-1.34h0a.968.968 0 011.34-.241h0a.97.97 0 01.241 1.341h0a.98.98 0 01-.8.415h0A.927.927 0 01160.741 50.613zM75.1 46.388a.951.951 0 01.357-1.311h0a.966.966 0 011.322.356h0a.978.978 0 01-.366 1.322h0a1.008 1.008 0 01-.473.116h0A.958.958 0 0175.1 46.388zm79.361.28h.01a.977.977 0 01-.366-1.322h0a.964.964 0 011.311-.367h0a.975.975 0 01.366 1.322h0a.969.969 0 01-.839.482h0A1.076 1.076 0 01154.46 46.668zM81.745 42.906a.98.98 0 01.482-1.283h0a.975.975 0 011.283.492h0a.972.972 0 01-.482 1.274h0a1.024 1.024 0 01-.405.087h0A.969.969 0 0181.745 42.906zm66.1.405a.97.97 0 01-.482-1.274h0a.963.963 0 011.273-.482h0a.962.962 0 01.493 1.274h0a.98.98 0 01-.887.569h0A1.019 1.019 0 01147.843 43.311zM88.691 40.06a.972.972 0 01.608-1.226h0a.967.967 0 011.226.6h0a.964.964 0 01-.6 1.226h0a.926.926 0 01-.318.058h0A.97.97 0 0188.691 40.06zm52.255.54a.956.956 0 01-.608-1.225h0a.962.962 0 011.226-.6h0a.957.957 0 01.6 1.225h0a.96.96 0 01-.906.646h0A.831.831 0 01140.946 40.6zM95.878 37.88a.974.974 0 01.723-1.158h0a.96.96 0 011.158.714h0a.956.956 0 01-.714 1.157h0a.861.861 0 01-.222.029h0A.985.985 0 0195.878 37.88zm37.93.674h.009a.966.966 0 01-.724-1.157h0a.974.974 0 011.158-.724h.009a.973.973 0 01.714 1.167h0a.967.967 0 01-.936.742h0A.921.921 0 01133.808 38.555zm-30.57-2.16a.974.974 0 01.82-1.091h0a.957.957 0 011.091.82h0a.961.961 0 01-.821 1.09h0a.606.606 0 01-.135.009h0A.965.965 0 01103.238 36.395zm23.286.79h0A.95.95 0 01125.7 36.1h0a.965.965 0 011.081-.829h.009a.98.98 0 01.82 1.09h0a.966.966 0 01-.955.83h0A.558.558 0 01126.524 37.185zM110.7 35.6a.975.975 0 01.926-1.013h-.009a.969.969 0 011.013.917h0a.957.957 0 01-.917 1.013h-.048A.971.971 0 01110.7 35.6zm8.431.906a.953.953 0 01-.917-1h0a.969.969 0 011-.927h0a.964.964 0 01.917 1.014h0a.957.957 0 01-.955.916h-.048zM114.427 186.947a1.09 1.09 0 011.091-1.09h.154a1.094 1.094 0 011.091 1.081h0a1.087 1.087 0 01-1.081 1.09h-.164A1.088 1.088 0 01114.427 186.947zm-6.482.685a1.069 1.069 0 01-.965-1.186h0a1.07 1.07 0 011.187-.965h0a1.083 1.083 0 01.974 1.186h0a1.088 1.088 0 01-1.081.975h0A.437.437 0 01107.945 187.631zm14.1-.974a1.093 1.093 0 01.965-1.2h0a1.08 1.08 0 011.2.965h0a1.085 1.085 0 01-.965 1.2h-.116A1.085 1.085 0 01122.048 186.657zm-21.589-.193a1.09 1.09 0 01-.839-1.292h0a1.087 1.087 0 011.283-.839h0a1.09 1.09 0 01.839 1.292h0a1.083 1.083 0 01-1.062.859h0A1.606 1.606 0 01100.46 186.464zm28.988-.868a1.076 1.076 0 01.83-1.292h0a1.089 1.089 0 011.293.839h0a1.085 1.085 0 01-.839 1.283h0a.91.91 0 01-.221.029h0A1.083 1.083 0 01129.447 185.6zm-36.318-1.09h0a1.093 1.093 0 01-.7-1.371h0a1.081 1.081 0 011.37-.694h0a1.079 1.079 0 01.7 1.36h0a1.083 1.083 0 01-1.032.753h0A1.384 1.384 0 0193.129 184.507zm43.553-.743a1.085 1.085 0 01.694-1.37h0a1.08 1.08 0 011.37.694h0a1.092 1.092 0 01-.694 1.37h0a1.28 1.28 0 01-.337.049h0A1.1 1.1 0 01136.682 183.763zm-50.634-1.977a1.092 1.092 0 01-.549-1.438h0a1.091 1.091 0 011.437-.55h0a1.093 1.093 0 01.55 1.438h0a1.091 1.091 0 01-.994.646h0A1.239 1.239 0 0186.048 181.786zm57.648-.608a1.085 1.085 0 01.54-1.438h0a1.088 1.088 0 011.438.54h0a1.089 1.089 0 01-.55 1.438h0a1.016 1.016 0 01-.444.1h0A1.075 1.075 0 01143.7 181.178zm-64.4-2.837v-.009h0a1.077 1.077 0 01-.395-1.476h0a1.078 1.078 0 011.485-.4h0a1.084 1.084 0 01.4 1.476h0a1.1 1.1 0 01-.945.55h0A1.1 1.1 0 0179.3 178.342zm71.095-.473a1.087 1.087 0 01.4-1.486h0a1.079 1.079 0 011.476.4h0a1.075 1.075 0 01-.386 1.476h0a1.052 1.052 0 01-.55.154h0A1.076 1.076 0 01150.39 177.869zM72.938 174.2a1.092 1.092 0 01-.241-1.514h0a1.074 1.074 0 011.515-.241h0a1.081 1.081 0 01.241 1.514h0a1.084 1.084 0 01-.878.444h0A1.105 1.105 0 0172.938 174.2zm83.76-.328a1.075 1.075 0 01.241-1.515h0a1.082 1.082 0 011.515.232h0a1.1 1.1 0 01-.241 1.524h0a1.112 1.112 0 01-.637.2h0A1.084 1.084 0 01156.7 173.876zm-89.654-4.447a1.084 1.084 0 01-.077-1.534h0a1.084 1.084 0 011.534-.077h0a1.073 1.073 0 01.077 1.524h0a1.081 1.081 0 01-.81.366h0A1.115 1.115 0 0167.045 169.428zm95.519-.173a1.084 1.084 0 01.077-1.534h0a1.085 1.085 0 011.534.077h0a1.093 1.093 0 01-.077 1.534h0a1.122 1.122 0 01-.733.28h0A1.1 1.1 0 01162.564 169.255zM61.69 164.065a1.084 1.084 0 01.077-1.534h0a1.073 1.073 0 011.524.087h0a1.084 1.084 0 01-.077 1.534h0a1.069 1.069 0 01-.723.27h0A1.051 1.051 0 0161.69 164.065zm106.227-.029a1.093 1.093 0 01-.087-1.534h0a1.084 1.084 0 011.534-.077h0a1.093 1.093 0 01.087 1.534h0a1.082 1.082 0 01-.81.357h0A1.036 1.036 0 01167.917 164.036zM56.906 158.181a1.091 1.091 0 01.241-1.515h0a1.08 1.08 0 011.515.232h0a1.085 1.085 0 01-.241 1.524h0a1.11 1.11 0 01-.637.2h0A1.1 1.1 0 0156.906 158.181zM172.692 158.3a1.088 1.088 0 01-.241-1.514h0a1.1 1.1 0 011.524-.241h0a1.091 1.091 0 01.241 1.514h0a1.1 1.1 0 01-.887.454h0A1.051 1.051 0 01172.692 158.3zM52.778 151.824a1.066 1.066 0 01.395-1.475h0a1.077 1.077 0 011.476.4h0a1.077 1.077 0 01-.4 1.475h0a.988.988 0 01-.54.145h0A1.064 1.064 0 0152.778 151.824zm124.072.27a1.1 1.1 0 01-.395-1.486h0a1.087 1.087 0 011.486-.4h0a1.1 1.1 0 01.395 1.486h0a1.088 1.088 0 01-.935.541h0A1.113 1.113 0 01176.85 152.094zM49.324 145.071v.01h0a1.089 1.089 0 01.549-1.437h0a1.092 1.092 0 011.438.55h0a1.1 1.1 0 01-.55 1.437h0a1.2 1.2 0 01-.444.088h0A1.091 1.091 0 0149.324 145.071zm131.018.415a1.073 1.073 0 01-.549-1.428h0a1.083 1.083 0 011.427-.56h0a1.089 1.089 0 01.55 1.438h0a1.083 1.083 0 01-.994.646h0A1.189 1.189 0 01180.342 145.486zM46.6 138h0a1.089 1.089 0 01.694-1.371h0a1.089 1.089 0 011.37.7h0a1.088 1.088 0 01-.694 1.37h0a1.079 1.079 0 01-.337.057h0A1.1 1.1 0 0146.6 138zM183.11 138.55a1.088 1.088 0 01-.694-1.37h0a1.078 1.078 0 011.36-.694h0a1.075 1.075 0 01.7 1.36h0a1.091 1.091 0 01-1.031.752h0A1.025 1.025 0 01183.11 138.55zM44.645 130.679a1.092 1.092 0 01.83-1.292h0a1.089 1.089 0 011.292.839h0a1.08 1.08 0 01-.839 1.283h0a.964.964 0 01-.221.029h0A1.083 1.083 0 0144.645 130.679zm140.492.685a1.09 1.09 0 01-.839-1.293h0a1.085 1.085 0 011.283-.839h0a1.086 1.086 0 01.839 1.283h.009a1.11 1.11 0 01-1.071.869h0A1.731 1.731 0 01185.137 131.363zm-141.678-8.18h0A1.084 1.084 0 0144.433 122h0a1.076 1.076 0 011.187.965h0a1.078 1.078 0 01-.965 1.187h0a.483.483 0 01-.116.009h0A1.086 1.086 0 0143.459 123.184zm142.941.81a1.083 1.083 0 01-.974-1.186h0a1.1 1.1 0 011.2-.975h0a1.092 1.092 0 01.965 1.2h0a1.088 1.088 0 01-1.081.974h0A.445.445 0 01186.4 123.994zM43.063 115.621a1.089 1.089 0 011.09-1.09h0a1.078 1.078 0 011.08 1.08h0a1.081 1.081 0 01-1.08 1.091h0A1.087 1.087 0 0143.063 115.621zm142.729-.164a1.081 1.081 0 011.09-1.081h0a1.073 1.073 0 011.081 1.081h0a1.081 1.081 0 01-1.081 1.09h0A1.1 1.1 0 01185.792 115.457zm-140.559.154h0v0zm-.81-6.376a1.084 1.084 0 01-.974-1.187h0a1.084 1.084 0 011.2-.965h0a1.07 1.07 0 01.965 1.187h0a1.084 1.084 0 01-1.07.974h0A.483.483 0 0144.424 109.235zm140.983-1.119a1.085 1.085 0 01.965-1.2h0a1.1 1.1 0 011.2.965h0a1.092 1.092 0 01-.965 1.2h0a.482.482 0 01-.116.009h0A1.087 1.087 0 01185.406 108.116zm-139.941-6.27a1.09 1.09 0 01-.839-1.293h0a1.086 1.086 0 011.283-.83h0a1.076 1.076 0 01.839 1.283h0a1.082 1.082 0 01-1.062.858h0A1.76 1.76 0 0145.465 101.846zm138.784-.994h0a1.088 1.088 0 01.838-1.283h0a1.074 1.074 0 011.283.83h0a1.084 1.084 0 01-.829 1.293h0a1.928 1.928 0 01-.232.02h0A1.089 1.089 0 01184.249 100.852zM47.279 94.6a1.1 1.1 0 01-.7-1.37h0a1.1 1.1 0 011.37-.7h0a1.085 1.085 0 01.7 1.37h0a1.074 1.074 0 01-1.033.753h0A1.305 1.305 0 0147.279 94.6zm135.06-.849a1.087 1.087 0 01.694-1.37h0a1.088 1.088 0 011.37.694h0a1.081 1.081 0 01-.694 1.37h0a1.032 1.032 0 01-.337.058h0A1.1 1.1 0 01182.339 93.753zM49.845 87.578a1.081 1.081 0 01-.55-1.427h0v-.01h0a1.089 1.089 0 011.427-.549h0a1.083 1.083 0 01.55 1.437h0a1.069 1.069 0 01-.984.646h0A1.016 1.016 0 0149.845 87.578zm129.85-.685a1.081 1.081 0 01.55-1.437h0a1.081 1.081 0 011.427.55h0a1.082 1.082 0 01-.54 1.427h0a1.049 1.049 0 01-.444.1h0A1.1 1.1 0 01179.7 86.894zM53.134 80.874a1.087 1.087 0 01-.395-1.486h0a1.087 1.087 0 011.486-.4h0a1.1 1.1 0 01.395 1.486h0a1.091 1.091 0 01-.945.541h0A1.1 1.1 0 0153.134 80.874zm123.205-.53a1.078 1.078 0 01.4-1.476h0a1.084 1.084 0 011.486.386h0a1.087 1.087 0 01-.4 1.486h0a1.01 1.01 0 01-.541.144h0A1.09 1.09 0 01176.339 80.344zm-119.231-5.8a1.091 1.091 0 01-.241-1.515h0a1.092 1.092 0 011.515-.241h0a1.083 1.083 0 01.241 1.515h0a1.067 1.067 0 01-.878.453h0A1.057 1.057 0 0157.108 74.546zm115.218-.357h0a1.08 1.08 0 01.232-1.515h0a1.079 1.079 0 011.514.232h0a1.092 1.092 0 01-.231 1.524h0a1.112 1.112 0 01-.637.2h0A1.083 1.083 0 01172.326 74.189zM61.719 68.672a1.085 1.085 0 01-.077-1.535h0a1.083 1.083 0 011.534-.076h0a1.08 1.08 0 01.077 1.523v.01a1.106 1.106 0 01-.81.357h0A1.1 1.1 0 0161.719 68.672zm105.966-.193a1.084 1.084 0 01.077-1.534h0a1.094 1.094 0 011.535.077h0a1.093 1.093 0 01-.077 1.534h0a1.077 1.077 0 01-.734.28h0A1.066 1.066 0 01167.686 68.479zM66.919 63.308A1.084 1.084 0 0167 61.774h0a1.086 1.086 0 011.535.077h0a1.084 1.084 0 01-.077 1.534h0a1.124 1.124 0 01-.734.28h0A1.1 1.1 0 0166.919 63.308zm95.558-.019a1.085 1.085 0 01-.087-1.534h0a1.1 1.1 0 011.534-.088h0a1.1 1.1 0 01.087 1.535h0a1.094 1.094 0 01-.81.367h0A1.084 1.084 0 01162.477 63.289zM72.64 58.514A1.089 1.089 0 0172.881 57h0a1.079 1.079 0 011.514.232h0a1.08 1.08 0 01-.231 1.515h-.01a1.053 1.053 0 01-.636.212h0A1.1 1.1 0 0172.64 58.514zm84.117.145a1.072 1.072 0 01-.241-1.515h0a1.089 1.089 0 011.514-.241h0a1.092 1.092 0 01.241 1.515h0a1.067 1.067 0 01-.878.453h0A1.053 1.053 0 01156.757 58.659zM78.842 54.337a1.083 1.083 0 01.386-1.486h0a1.087 1.087 0 011.486.4h0a1.087 1.087 0 01-.4 1.486h0a1.114 1.114 0 01-.541.144h0A1.064 1.064 0 0178.842 54.337zm71.741.318h0a1.078 1.078 0 01-.4-1.476h0a1.09 1.09 0 011.486-.405h0a1.1 1.1 0 01.4 1.486h0a1.092 1.092 0 01-.946.541h0A1.11 1.11 0 01150.583 54.655zm-65.152-3.82a1.092 1.092 0 01.55-1.438h0a1.091 1.091 0 011.437.55h0a1.093 1.093 0 01-.549 1.438h0a1.066 1.066 0 01-.444.1h0A1.093 1.093 0 0185.431 50.835zm58.6.482a1.082 1.082 0 01-.56-1.428h0a1.092 1.092 0 011.437-.549h0a1.078 1.078 0 01.55 1.427h0a1.094 1.094 0 01-.994.646h0A.976.976 0 01144.033 51.318zm-51.666-3.27a1.075 1.075 0 01.685-1.371h0a1.078 1.078 0 011.37.7h0a1.081 1.081 0 01-.7 1.37h0a1.279 1.279 0 01-.337.048h0A1.073 1.073 0 0192.367 48.048zm44.788.646h.01a1.086 1.086 0 01-.7-1.37h0a1.084 1.084 0 011.37-.7h0a1.078 1.078 0 01.694 1.36h0a1.074 1.074 0 01-1.032.753h0A1.059 1.059 0 01137.155 48.694zM99.543 46a1.091 1.091 0 01.839-1.293h0a1.086 1.086 0 011.283.839h0a1.086 1.086 0 01-.83 1.283h-.009a.805.805 0 01-.221.029h0A1.093 1.093 0 0199.543 46zm30.512.8a1.086 1.086 0 01-.839-1.283h0a1.076 1.076 0 011.283-.839h0a1.076 1.076 0 01.839 1.283h0a1.082 1.082 0 01-1.061.858h0A1.633 1.633 0 01130.055 46.8zM106.9 44.719a1.085 1.085 0 01.965-1.2h0a1.1 1.1 0 011.2.974h0a1.09 1.09 0 01-.974 1.187h0c-.039 0-.077.009-.116.009h0A1.084 1.084 0 01106.9 44.719zm15.878.945h0a1.07 1.07 0 01-.965-1.186h0A1.076 1.076 0 01123 43.514h0a1.083 1.083 0 01.974 1.186h0a1.086 1.086 0 01-1.08.974h0A.483.483 0 01122.781 45.664zm-8.43-1.447a1.081 1.081 0 011.08-1.09h.01a1.079 1.079 0 011.081 1.081h0a1.081 1.081 0 01-1.081 1.09h0A1.087 1.087 0 01114.351 44.217zM115.614 179.393a.306.306 0 01-.1.01h0a1.206 1.206 0 01-1.206-1.206h0a1.206 1.206 0 011.206-1.206H115.7a1.2 1.2 0 011.206 1.2h0a1.207 1.207 0 01-1.2 1.216h0A.275.275 0 01115.614 179.393zm-7.64-.433a1.207 1.207 0 01-1.062-1.341h0a1.212 1.212 0 011.342-1.051h0a1.206 1.206 0 011.061 1.34h0a1.217 1.217 0 01-1.206 1.062h0A.649.649 0 01107.974 178.96zm13.929-1.071a1.222 1.222 0 011.062-1.351h0a1.217 1.217 0 011.34 1.062h0a1.217 1.217 0 01-1.051 1.34h0c-.048 0-.1.009-.145.009h0A1.217 1.217 0 01121.9 177.889zm-21.376-.261v.01h0a1.213 1.213 0 01-.887-1.457h0a1.206 1.206 0 011.456-.9h0a1.213 1.213 0 01.887 1.456h0a1.212 1.212 0 01-1.167.926h0A.981.981 0 01100.528 177.628zm28.708-.926a1.2 1.2 0 01.878-1.456h.009a1.212 1.212 0 011.456.887h0a1.212 1.212 0 01-.887 1.456h0a1.433 1.433 0 01-.289.029h0A1.2 1.2 0 01129.235 176.7zm-35.943-1.273a1.2 1.2 0 01-.7-1.553h0a1.2 1.2 0 011.543-.714h0a1.208 1.208 0 01.714 1.553h0a1.223 1.223 0 01-1.129.791h0A1.319 1.319 0 0193.293 175.429zm43.071-.772a1.2 1.2 0 01.7-1.553h0a1.209 1.209 0 011.552.7h0a1.211 1.211 0 01-.7 1.553h0a1.373 1.373 0 01-.425.077h0A1.2 1.2 0 01136.364 174.658zm-49.987-2.286a1.191 1.191 0 01-.521-1.621h0a1.213 1.213 0 011.62-.521h0A1.2 1.2 0 0188 171.85h0a1.19 1.19 0 01-1.071.656h0A1.133 1.133 0 0186.376 172.371zm56.817-.6a1.224 1.224 0 01.521-1.631h0a1.21 1.21 0 011.62.521h0a1.21 1.21 0 01-.511 1.631h0a1.253 1.253 0 01-.55.135h0A1.222 1.222 0 01143.193 171.773zm-63.328-3.251a1.2 1.2 0 01-.318-1.669h0a1.189 1.189 0 011.668-.328h0a1.219 1.219 0 01.328 1.679h0a1.241 1.241 0 01-1 .53h0A1.19 1.19 0 0179.865 168.522zm69.772-.415a1.209 1.209 0 01.318-1.679h0a1.209 1.209 0 011.679.318h0a1.209 1.209 0 01-.318 1.678h0a1.174 1.174 0 01-.675.2h0A1.22 1.22 0 01149.637 168.108zm-75.773-4.177v.009h0a1.211 1.211 0 01-.135-1.708h0a1.216 1.216 0 011.707-.125h0a1.206 1.206 0 01.125 1.7h0a1.211 1.211 0 01-.916.424h0A1.153 1.153 0 0173.864 163.931zm81.744-.232a1.2 1.2 0 01.116-1.7h0a1.207 1.207 0 011.707.116h0a1.2 1.2 0 01-.125 1.7h0v.009h0a1.23 1.23 0 01-.79.289h0A1.2 1.2 0 01155.609 163.7zm-87.175-5.026h0a1.216 1.216 0 01.077-1.708h0a1.2 1.2 0 011.7.077h0a1.2 1.2 0 01-.067 1.7h0a1.2 1.2 0 01-.821.317h0A1.208 1.208 0 0168.433 158.673zm92.577-.058a1.2 1.2 0 01-.077-1.7h0a1.208 1.208 0 011.708-.077h0a1.2 1.2 0 01.077 1.7h0a1.221 1.221 0 01-.9.4h0A1.193 1.193 0 01161.01 158.615zm-97.342-5.807h0a1.222 1.222 0 01.269-1.688h0a1.213 1.213 0 011.688.28h0a1.2 1.2 0 01-.28 1.679h0a1.18 1.18 0 01-.694.231h0A1.2 1.2 0 0163.668 152.808zm102.117.135a1.218 1.218 0 01-.28-1.688h0a1.205 1.205 0 011.679-.28h0a1.207 1.207 0 01.289 1.688h-.009a1.2 1.2 0 01-.984.5h0A1.232 1.232 0 01165.785 152.943zM59.626 146.422a1.2 1.2 0 01.473-1.64h0a1.209 1.209 0 011.64.473h0a1.218 1.218 0 01-.473 1.64h0a1.261 1.261 0 01-.579.144h0A1.215 1.215 0 0159.626 146.422zm110.23.318a1.2 1.2 0 01-.472-1.64h0a1.187 1.187 0 011.63-.473h0a1.2 1.2 0 01.482 1.631h0a1.205 1.205 0 01-1.061.627h0A1.262 1.262 0 01169.856 146.74zM56.366 139.6h0a1.208 1.208 0 01.665-1.572h0a1.209 1.209 0 011.573.666h0a1.208 1.208 0 01-.666 1.572h0a1.229 1.229 0 01-.453.087h0A1.208 1.208 0 0156.366 139.6zm116.8.493a1.209 1.209 0 01-.666-1.573h0a1.2 1.2 0 011.572-.665h0a1.208 1.208 0 01.666 1.572h0a1.223 1.223 0 01-1.119.753h0A1.225 1.225 0 01173.165 140.094zm-119.221-7.65h0a1.213 1.213 0 01.849-1.486h0a1.2 1.2 0 011.475.849h0a1.2 1.2 0 01-.849 1.476h0a1.2 1.2 0 01-.318.048h0A1.2 1.2 0 0153.945 132.444zM175.664 133.1a1.191 1.191 0 01-.849-1.476h0a1.2 1.2 0 011.476-.849h0a1.211 1.211 0 01.849 1.475h0a1.214 1.214 0 01-1.167.9h0A1.232 1.232 0 01175.664 133.1zM52.391 125.045h0a1.208 1.208 0 011.013-1.37h0a1.207 1.207 0 011.37 1.013h0a1.2 1.2 0 01-1.013 1.37h0a.992.992 0 01-.183.02h0A1.2 1.2 0 0152.391 125.045zm124.912.83a1.215 1.215 0 01-1.023-1.37h0a1.215 1.215 0 011.37-1.023h0a1.215 1.215 0 011.023 1.37h0a1.212 1.212 0 01-1.2 1.032h0A1.071 1.071 0 01177.3 125.875zM51.716 117.521a1.216 1.216 0 011.177-1.245h0a1.2 1.2 0 011.235 1.167h0a1.206 1.206 0 01-1.167 1.245H52.922A1.218 1.218 0 0151.716 117.521zM178.075 118.5a1.2 1.2 0 01-1.167-1.234h0a1.2 1.2 0 011.235-1.178h0a1.207 1.207 0 011.177 1.235h0a1.213 1.213 0 01-1.206 1.177h-.039zM53.028 111.27a1.2 1.2 0 01-1.09-1.3h0a1.2 1.2 0 011.3-1.1h0a1.2 1.2 0 011.1 1.3h0a1.206 1.206 0 01-1.206 1.1H53.028zm123.648-1.282a1.21 1.21 0 011.09-1.312h0a1.21 1.21 0 011.312 1.09h0a1.2 1.2 0 01-1.09 1.312h0c-.039 0-.077.01-.106.01h0A1.208 1.208 0 01176.676 109.988zm-122.7-6.078a1.2 1.2 0 01-.935-1.427h0a1.21 1.21 0 011.428-.936h0a1.22 1.22 0 01.935 1.427h0a1.221 1.221 0 01-1.177.965h0A1.027 1.027 0 0153.973 103.91zM175.6 102.791h0a1.209 1.209 0 01.926-1.428h0a1.218 1.218 0 011.438.935h0a1.214 1.214 0 01-.935 1.428h0a1.08 1.08 0 01-.251.019h0A1.2 1.2 0 01175.6 102.791zM55.777 96.713a1.216 1.216 0 01-.762-1.534h0a1.212 1.212 0 011.534-.753h0a1.2 1.2 0 01.753 1.524h0a1.2 1.2 0 01-1.138.821h0A1.336 1.336 0 0155.777 96.713zm117.889-.935h0a1.2 1.2 0 01.753-1.524h0a1.2 1.2 0 011.534.753h0a1.2 1.2 0 01-.753 1.524h0a1.087 1.087 0 01-.385.067h0A1.219 1.219 0 01173.667 95.778zm-115.237-6a1.19 1.19 0 01-.569-1.6h0a1.19 1.19 0 011.6-.569h0a1.19 1.19 0 01.569 1.6h0a1.194 1.194 0 01-1.081.685h0A1.112 1.112 0 0158.43 89.778zm112.488-.733a1.2 1.2 0 01.569-1.6h0A1.207 1.207 0 01173.1 88h0a1.22 1.22 0 01-.569 1.611h0a1.272 1.272 0 01-.521.116h0A1.208 1.208 0 01170.918 89.045zM61.883 83.219a1.214 1.214 0 01-.376-1.669h0a1.213 1.213 0 011.668-.376h0a1.21 1.21 0 01.366 1.668h.01a1.23 1.23 0 01-1.023.56h0A1.22 1.22 0 0161.883 83.219zM167.4 82.687h0a1.2 1.2 0 01.366-1.659h0a1.2 1.2 0 011.66.367h.009a1.215 1.215 0 01-.376 1.669h0a1.221 1.221 0 01-.647.183h0A1.179 1.179 0 01167.4 82.687zM66.09 77.1a1.208 1.208 0 01-.174-1.7h0a1.208 1.208 0 011.7-.173h0a1.207 1.207 0 01.173 1.7h0a1.223 1.223 0 01-.935.444h0A1.186 1.186 0 0166.09 77.1zm97.043-.308a1.218 1.218 0 01.174-1.7h0a1.2 1.2 0 011.7.174h0a1.2 1.2 0 01-.174 1.7h0a1.185 1.185 0 01-.762.27h0A1.223 1.223 0 01163.133 76.794zM70.99 71.536a1.214 1.214 0 01.019-1.708h.009a1.2 1.2 0 011.7.02h0a1.214 1.214 0 01-.02 1.707h0a1.181 1.181 0 01-.839.338h0A1.192 1.192 0 0170.99 71.536zm87.223-.1h0a1.206 1.206 0 01-.029-1.708h0a1.206 1.206 0 011.708-.029h0a1.215 1.215 0 01.028 1.708h0a1.219 1.219 0 01-.868.367h0A1.225 1.225 0 01158.213 71.44zM76.508 66.579a1.212 1.212 0 01.222-1.7h0a1.215 1.215 0 011.7.232h0A1.212 1.212 0 0178.2 66.8h0a1.2 1.2 0 01-.733.251h0A1.216 1.216 0 0176.508 66.579zM152.7 66.693a1.2 1.2 0 01-.222-1.688h0a1.2 1.2 0 011.688-.231h0a1.2 1.2 0 01.222 1.688h0a1.171 1.171 0 01-.955.482h0A1.217 1.217 0 01152.7 66.693zM82.566 62.3a1.206 1.206 0 01.424-1.649h0a1.2 1.2 0 011.65.415h0a1.2 1.2 0 01-.415 1.65h0a1.205 1.205 0 01-.617.173h0A1.218 1.218 0 0182.566 62.3zm64.091.328h0a1.208 1.208 0 01-.424-1.65h0a1.208 1.208 0 011.649-.424h0a1.19 1.19 0 01.424 1.649h0a1.193 1.193 0 01-1.032.6h0A1.2 1.2 0 01146.656 62.632zM89.1 58.774a1.2 1.2 0 01.608-1.591h0A1.21 1.21 0 0191.3 57.8h0a1.2 1.2 0 01-.617 1.592h0a1.219 1.219 0 01-.482.105h0A1.194 1.194 0 0189.1 58.774zm51.088.541h0a1.2 1.2 0 01-.617-1.583h0a1.19 1.19 0 011.582-.617h0a1.2 1.2 0 01.627 1.582h0a1.216 1.216 0 01-1.11.723h0A1.2 1.2 0 01140.184 59.314zm-44.19-3.26a1.191 1.191 0 01.8-1.505h0a1.2 1.2 0 011.5.791h0a1.22 1.22 0 01-.8 1.515h0a1.554 1.554 0 01-.357.048h0A1.208 1.208 0 0195.994 56.054zm37.36.742a1.206 1.206 0 01-.8-1.5h0a1.2 1.2 0 011.505-.8h0a1.2 1.2 0 01.8 1.495h0a1.2 1.2 0 01-1.148.858h0A1.567 1.567 0 01133.354 56.8zm-30.193-2.633a1.2 1.2 0 01.974-1.4h0a1.2 1.2 0 011.4.974h0a1.2 1.2 0 01-.965 1.4h0a1.739 1.739 0 01-.221.019h0A1.207 1.207 0 01103.161 54.163zm23.122.945a1.2 1.2 0 01-.974-1.4h0a1.212 1.212 0 011.4-.983h0a1.21 1.21 0 01.974 1.4h0a1.2 1.2 0 01-1.186.993h0A1.669 1.669 0 01126.283 55.108zM110.511 53.14a1.2 1.2 0 011.128-1.273h0A1.221 1.221 0 01112.923 53h0a1.23 1.23 0 01-1.138 1.283h-.068A1.206 1.206 0 01110.511 53.14zm8.547 1.119A1.2 1.2 0 01117.93 53h0a1.208 1.208 0 011.273-1.139h-.009a1.208 1.208 0 011.138 1.274h0a1.213 1.213 0 01-1.206 1.138h0A.189.189 0 01119.058 54.26zM115.624 170.77a.4.4 0 01-.105.009h0a1.334 1.334 0 01-1.332-1.331h0a1.326 1.326 0 011.332-1.322h.2a1.318 1.318 0 011.331 1.312h0a1.34 1.34 0 01-1.322 1.34h0A.409.409 0 01115.624 170.77zm-7.62-.5h0a1.334 1.334 0 01-1.139-1.5h0a1.325 1.325 0 011.495-1.129h0a1.318 1.318 0 011.139 1.486h0a1.328 1.328 0 01-1.312 1.148h0A1.145 1.145 0 01108 170.268zm13.736-1.157a1.328 1.328 0 011.129-1.5h0a1.336 1.336 0 011.505 1.129h0a1.333 1.333 0 01-1.129 1.5h-.009a1.143 1.143 0 01-.184.009h0A1.328 1.328 0 01121.739 169.111zm-21.106-.367a1.328 1.328 0 01-.926-1.63h0a1.343 1.343 0 011.64-.926h0a1.329 1.329 0 01.917 1.64h0a1.329 1.329 0 01-1.274.965h0A1.138 1.138 0 01100.633 168.744zm28.332-.974a1.321 1.321 0 01.917-1.63h0a1.324 1.324 0 011.64.906h0a1.33 1.33 0 01-.917 1.64h0a1.138 1.138 0 01-.357.048h0A1.336 1.336 0 01128.965 167.769zm-35.431-1.543a1.332 1.332 0 01-.7-1.746h0a1.332 1.332 0 011.747-.694v.009a1.328 1.328 0 01.694 1.747h0a1.349 1.349 0 01-1.225.79h0A1.4 1.4 0 0193.534 166.226zm42.415-.772a1.325 1.325 0 01.675-1.746h0a1.329 1.329 0 011.755.685h0a1.33 1.33 0 01-.685 1.747h0a1.3 1.3 0 01-.53.106h0A1.31 1.31 0 01135.949 165.455zm-49.11-2.7a1.328 1.328 0 01-.434-1.823h0a1.311 1.311 0 011.813-.444h0a1.322 1.322 0 01.444 1.823h0a1.3 1.3 0 01-1.129.637h0A1.3 1.3 0 0186.839 162.753zm55.7-.54a1.327 1.327 0 01.434-1.823h0a1.32 1.32 0 011.823.433h0a1.32 1.32 0 01-.434 1.824h0a1.284 1.284 0 01-.694.193h0A1.324 1.324 0 01142.538 162.213zM80.694 158.4h0a1.32 1.32 0 01-.193-1.862h0a1.321 1.321 0 011.862-.193h.009a1.339 1.339 0 01.183 1.872h0a1.313 1.313 0 01-1.022.482h0A1.3 1.3 0 0180.694 158.4zm67.93-.309a1.328 1.328 0 01.184-1.861h0a1.33 1.33 0 011.871.184h0a1.339 1.339 0 01-.183 1.871h0a1.337 1.337 0 01-.839.3h0A1.342 1.342 0 01148.624 158.094zm-73.438-4.823a1.327 1.327 0 01.068-1.88h0a1.333 1.333 0 011.871.067h0a1.325 1.325 0 01-.058 1.872h0a1.335 1.335 0 01-.907.357h0A1.322 1.322 0 0175.186 153.271zm78.918-.076a1.317 1.317 0 01-.068-1.872h0a1.317 1.317 0 011.871-.068h0a1.316 1.316 0 01.068 1.872h0a1.33 1.33 0 01-.974.424h0A1.292 1.292 0 01154.1 153.194zm-83.674-5.76a1.329 1.329 0 01.318-1.852h0a1.33 1.33 0 011.852.318h0a1.338 1.338 0 01-.318 1.852h0a1.33 1.33 0 01-.771.241h0A1.318 1.318 0 0170.43 147.435zm88.438.155a1.327 1.327 0 01-.328-1.843h0a1.33 1.33 0 011.852-.318h0a1.316 1.316 0 01.318 1.843h0a1.306 1.306 0 01-1.08.56h0A1.3 1.3 0 01158.869 147.589zM66.513 141.01h0a1.335 1.335 0 01.56-1.794h0a1.336 1.336 0 011.794.569h0a1.319 1.319 0 01-.569 1.784h0a1.261 1.261 0 01-.608.154h0A1.317 1.317 0 0166.513 141.01zm96.311.386a1.327 1.327 0 01-.57-1.784h0a1.32 1.32 0 011.785-.57h0a1.327 1.327 0 01.578 1.785h0a1.342 1.342 0 01-1.186.714h0A1.375 1.375 0 01162.825 141.4zM63.5 134.1h0a1.314 1.314 0 01.8-1.688h0a1.321 1.321 0 011.7.8h0a1.318 1.318 0 01-.8 1.688h0a1.239 1.239 0 01-.454.077h0A1.325 1.325 0 0163.5 134.1zm102.407.617a1.326 1.326 0 01-.81-1.7h0a1.327 1.327 0 011.688-.81h0a1.329 1.329 0 01.81 1.7h0a1.336 1.336 0 01-1.254.887h0A1.382 1.382 0 01165.911 134.721zM61.469 126.849a1.321 1.321 0 011.032-1.563h0a1.313 1.313 0 011.562 1.032h0a1.314 1.314 0 01-1.022 1.563h0a1.4 1.4 0 01-.28.028h0A1.334 1.334 0 0161.469 126.849zm106.574.83A1.328 1.328 0 01167 126.116h0a1.338 1.338 0 011.573-1.042h0a1.338 1.338 0 011.031 1.572h0a1.329 1.329 0 01-1.3 1.061h0A1.239 1.239 0 01168.043 127.679zm-107.6-8.286a1.32 1.32 0 011.235-1.408h0a1.326 1.326 0 011.418 1.225H63.089a1.321 1.321 0 01-1.225 1.418h-.1A1.321 1.321 0 0160.446 119.393zm108.745 1.022a1.321 1.321 0 01-1.235-1.408h0a1.327 1.327 0 011.408-1.235h0a1.327 1.327 0 011.235 1.408h0a1.328 1.328 0 01-1.322 1.244h0C169.248 120.424 169.22 120.415 169.191 120.415zm-107.51-7.139a1.328 1.328 0 01-1.244-1.408h0a1.328 1.328 0 011.418-1.234h0a1.327 1.327 0 011.235 1.408h0a1.336 1.336 0 01-1.322 1.244h0C61.739 113.287 61.71 113.276 61.681 113.276zm106.246-1.437a1.33 1.33 0 011.235-1.419h0a1.335 1.335 0 011.418 1.235h0a1.325 1.325 0 01-1.234 1.408h0a.309.309 0 01-.1.009h0A1.341 1.341 0 01167.927 111.84zM62.482 105.975a1.326 1.326 0 01-1.032-1.563h0V104.4h0a1.328 1.328 0 011.563-1.032h0a1.323 1.323 0 011.032 1.572h0a1.329 1.329 0 01-1.3 1.061h0A1.218 1.218 0 0162.482 105.975zm104.462-1.235a1.329 1.329 0 011.022-1.572h0a1.328 1.328 0 011.573 1.022h0a1.32 1.32 0 01-1.023 1.572h0a1.316 1.316 0 01-.27.029h0A1.328 1.328 0 01166.943 104.74zm-102.667-5.9a1.322 1.322 0 01-.81-1.688h0a1.333 1.333 0 011.7-.81h0a1.341 1.341 0 01.81 1.7h0a1.328 1.328 0 01-1.254.878h0A1.182 1.182 0 0164.276 98.836zM165 97.842h0a1.331 1.331 0 01.8-1.7h0a1.337 1.337 0 011.7.8h0a1.328 1.328 0 01-.8 1.7h0a1.188 1.188 0 01-.444.077h0A1.326 1.326 0 01165 97.842zM67.034 92.015a1.319 1.319 0 01-.569-1.784h0a1.327 1.327 0 011.785-.569h0a1.319 1.319 0 01.569 1.784v.01a1.318 1.318 0 01-1.177.713h0A1.261 1.261 0 0167.034 92.015zm95.086-.733V91.273a1.324 1.324 0 01.56-1.784h0a1.337 1.337 0 011.794.559h0a1.338 1.338 0 01-.559 1.795h0a1.439 1.439 0 01-.618.145h0A1.337 1.337 0 01162.12 91.283zM70.7 85.64a1.316 1.316 0 01-.318-1.843h0a1.315 1.315 0 011.842-.318h0a1.316 1.316 0 01.318 1.843h0a1.314 1.314 0 01-1.08.569h0A1.329 1.329 0 0170.7 85.64zm87.676-.473a1.327 1.327 0 01.309-1.852h0a1.329 1.329 0 011.852.318h0a1.337 1.337 0 01-.309 1.852h0a1.351 1.351 0 01-.772.241h0A1.318 1.318 0 01158.377 85.167zM75.2 79.823a1.316 1.316 0 01-.067-1.871h0A1.324 1.324 0 0177 77.884h0a1.316 1.316 0 01.068 1.871h0a1.331 1.331 0 01-.974.425h0A1.3 1.3 0 0175.2 79.823zm78.638-.2a1.326 1.326 0 01.058-1.872h0a1.328 1.328 0 011.881.058h0a1.324 1.324 0 01-.057 1.871h0a1.348 1.348 0 01-.907.367h0A1.33 1.33 0 01153.834 79.62zm-73.4-4.949a1.332 1.332 0 01.192-1.872h0a1.322 1.322 0 011.862.193h0a1.328 1.328 0 01-.184 1.861h0a1.329 1.329 0 01-.839.3h0A1.33 1.33 0 0180.434 74.672zm68.152.068h0a1.321 1.321 0 01-.193-1.862h0a1.33 1.33 0 011.862-.2h0a1.333 1.333 0 01.193 1.872h0a1.34 1.34 0 01-1.032.492h0A1.292 1.292 0 01148.586 74.739zM86.318 70.272a1.331 1.331 0 01.444-1.823h0a1.323 1.323 0 011.823.444h0a1.324 1.324 0 01-.444 1.824h0a1.362 1.362 0 01-.685.192h0A1.335 1.335 0 0186.318 70.272zm56.4.338a1.321 1.321 0 01-.444-1.823h0a1.338 1.338 0 011.824-.445h0a1.332 1.332 0 01.444 1.824h0a1.318 1.318 0 01-1.139.637h0A1.28 1.28 0 01142.721 70.61zM92.752 66.723a1.338 1.338 0 01.685-1.756h0a1.332 1.332 0 011.747.7h0a1.33 1.33 0 01-.685 1.746h0a1.445 1.445 0 01-.531.106h0A1.327 1.327 0 0192.752 66.723zm43.6.6h0a1.319 1.319 0 01-.694-1.736h0a1.326 1.326 0 011.746-.694h0a1.314 1.314 0 01.685 1.746h0a1.326 1.326 0 01-1.215.791h0A1.229 1.229 0 01136.354 67.321zM99.611 64.07a1.314 1.314 0 01.917-1.63h0a1.329 1.329 0 011.639.916h0a1.335 1.335 0 01-.926 1.64l.01-.01a1.212 1.212 0 01-.367.057h0A1.325 1.325 0 0199.611 64.07zm29.981.869a1.318 1.318 0 01-.926-1.631h0a1.313 1.313 0 011.63-.926h0a1.328 1.328 0 01.926 1.631h0a1.329 1.329 0 01-1.283.974h0A1.461 1.461 0 01129.592 64.938zm-22.824-2.547a1.325 1.325 0 011.129-1.5h0a1.322 1.322 0 011.495 1.139h0a1.325 1.325 0 01-1.128 1.5h0a1.191 1.191 0 01-.183.009h0A1.321 1.321 0 01106.769 62.391zm15.8 1.11a1.328 1.328 0 01-1.138-1.5h0a1.325 1.325 0 011.486-1.139h0a1.335 1.335 0 011.138 1.5h0a1.321 1.321 0 01-1.312 1.147h0A1.071 1.071 0 01122.569 63.5zm-7.158-.473a1.331 1.331 0 01-1.331-1.322h0a1.334 1.334 0 011.331-1.331h0a1.332 1.332 0 011.322 1.331h0a1.324 1.324 0 01-1.322 1.322h0zm0-2.653h0zM114.071 160.708a1.446 1.446 0 011.447-1.447h.076c.039 0 .077-.009.106-.009h0a1.459 1.459 0 011.456 1.447h0a1.445 1.445 0 01-1.447 1.447h-.192v.009h0A1.451 1.451 0 01114.071 160.708zm-6.213.811h0a1.444 1.444 0 01-1.2-1.66h0a1.458 1.458 0 011.669-1.2h0a1.45 1.45 0 011.186 1.668h0a1.446 1.446 0 01-1.418 1.215h0A1.056 1.056 0 01107.859 161.519zM121.7 160.3a1.449 1.449 0 011.187-1.668h0a1.451 1.451 0 011.668 1.186h0a1.443 1.443 0 01-1.186 1.669h0a1.044 1.044 0 01-.241.019h0A1.448 1.448 0 01121.7 160.3zm-21.3-.656a1.455 1.455 0 01-.9-1.843h0a1.436 1.436 0 011.833-.9h0a1.448 1.448 0 01.906 1.833h0a1.467 1.467 0 01-1.37.983h0A1.621 1.621 0 01100.4 159.647zm28.573-.965a1.459 1.459 0 01.9-1.843h0a1.451 1.451 0 011.843.9h0a1.446 1.446 0 01-.9 1.842h0a1.592 1.592 0 01-.473.077h0A1.459 1.459 0 01128.974 158.683zM93.36 156.551h0a1.451 1.451 0 01-.588-1.959h0A1.459 1.459 0 0194.74 154h0a1.448 1.448 0 01.578 1.968h0a1.444 1.444 0 01-1.274.752h0A1.448 1.448 0 0193.36 156.551zm42.522-.666a1.453 1.453 0 01.569-1.967h0a1.447 1.447 0 011.968.578h0a1.448 1.448 0 01-.578 1.968h0a1.441 1.441 0 01-.685.173h0A1.446 1.446 0 01135.881 155.885zm-48.956-3.54a1.436 1.436 0 01-.251-2.035h0a1.441 1.441 0 012.025-.251h0a1.453 1.453 0 01.251 2.035h0a1.459 1.459 0 01-1.139.55h0A1.43 1.43 0 0186.926 152.345zm55.3-.367a1.442 1.442 0 01.241-2.025h0a1.446 1.446 0 012.036.241h0a1.449 1.449 0 01-.251 2.036h0a1.461 1.461 0 01-.888.308h0A1.439 1.439 0 01142.229 151.978zm-60.966-4.842a1.449 1.449 0 01.087-2.045h0a1.447 1.447 0 012.045.087h0a1.448 1.448 0 01-.087 2.045h0a1.455 1.455 0 01-.974.376h0A1.458 1.458 0 0181.263 147.136zm66.59-.048a1.44 1.44 0 01-.1-2.045h0a1.447 1.447 0 012.045-.087h0a1.449 1.449 0 01.1 2.044h-.009a1.444 1.444 0 01-1.062.473h0A1.406 1.406 0 01147.853 147.088zm-71.316-6.01a1.455 1.455 0 01.415-2.007h0a1.454 1.454 0 012.006.415h0a1.446 1.446 0 01-.414 2.007h0a1.435 1.435 0 01-.791.241h0A1.452 1.452 0 0176.537 141.078zm76.062.261a1.43 1.43 0 01-.424-2h0a1.438 1.438 0 012-.425h0a1.448 1.448 0 01.425 2.007h0a1.442 1.442 0 01-1.215.657h0A1.381 1.381 0 01152.6 141.339zm-79.727-7.013a1.453 1.453 0 01.742-1.91h0a1.439 1.439 0 011.9.742h0a1.45 1.45 0 01-.733 1.91h0a1.615 1.615 0 01-.589.115h0A1.447 1.447 0 0172.871 134.325zm83.47.569a1.443 1.443 0 01-.752-1.91h0a1.439 1.439 0 011.9-.743h0a1.446 1.446 0 01.753 1.9h0a1.456 1.456 0 01-1.332.877h0A1.478 1.478 0 01156.341 134.894zm-85.969-7.842a1.435 1.435 0 011.042-1.756h0a1.439 1.439 0 011.756 1.042h0a1.448 1.448 0 01-1.042 1.765h0a1.538 1.538 0 01-.357.039h0A1.441 1.441 0 0170.372 127.052zm88.594.858a1.44 1.44 0 01-1.062-1.746v-.009a1.447 1.447 0 011.756-1.051h0a1.451 1.451 0 011.051 1.755h0a1.449 1.449 0 01-1.4 1.1h0A1.412 1.412 0 01158.966 127.91zm-89.857-8.441a1.441 1.441 0 011.322-1.562h0a1.444 1.444 0 011.552 1.321h0a1.441 1.441 0 01-1.321 1.563h0c-.039 0-.077.01-.116.01h0A1.448 1.448 0 0169.109 119.469zm91.284 1.129a1.441 1.441 0 01-1.331-1.553h0a1.447 1.447 0 011.553-1.331h0a1.453 1.453 0 011.331 1.552h0a1.453 1.453 0 01-1.447 1.341h0C160.47 120.608 160.432 120.6 160.393 120.6zm-89.972-7.255a1.442 1.442 0 01-1.322-1.563h0a1.44 1.44 0 011.552-1.322h0a1.45 1.45 0 011.331 1.563v-.009a1.449 1.449 0 01-1.447 1.331H70.421zm88.612-1.515a1.454 1.454 0 011.322-1.562h0a1.441 1.441 0 011.563 1.321h0a1.446 1.446 0 01-1.312 1.563H160.48A1.456 1.456 0 01159.033 111.829zM71.4 105.955a1.451 1.451 0 01-1.051-1.755h0a1.451 1.451 0 011.755-1.052h0A1.451 1.451 0 0173.15 104.9h0a1.451 1.451 0 01-1.408 1.1h0A1.424 1.424 0 0171.4 105.955zm86.441-1.234h0a1.447 1.447 0 011.042-1.756h0a1.453 1.453 0 011.765 1.042h0a1.444 1.444 0 01-1.042 1.755h0a1.2 1.2 0 01-.366.049h0A1.442 1.442 0 01157.836 104.721zM73.575 98.826a1.451 1.451 0 01-.742-1.91h0a1.439 1.439 0 011.9-.742h0a1.455 1.455 0 01.753 1.91h0a1.453 1.453 0 01-1.332.859h0A1.548 1.548 0 0173.575 98.826zm81.9-.917h0A1.456 1.456 0 01156.216 96h0a1.458 1.458 0 011.91.742h0a1.458 1.458 0 01-.743 1.91h0a1.562 1.562 0 01-.578.115h0A1.451 1.451 0 01155.474 97.91zM76.913 92.151a1.438 1.438 0 01-.424-2h0a1.446 1.446 0 012-.424h0a1.447 1.447 0 01.425 2.006h0a1.45 1.45 0 01-1.206.657h0A1.389 1.389 0 0176.913 92.151zm75.108-.569a1.444 1.444 0 01.414-2h0a1.446 1.446 0 012.006.405h0A1.446 1.446 0 01154.027 92h0a1.41 1.41 0 01-.791.241h0A1.454 1.454 0 01152.02 91.582zM81.292 86.131a1.447 1.447 0 01-.087-2.045h0A1.431 1.431 0 0183.251 84h0a1.438 1.438 0 01.087 2.036h0a1.408 1.408 0 01-1.061.472h0A1.463 1.463 0 0181.292 86.131zm66.281-.221h0a1.457 1.457 0 01.077-2.045h0a1.468 1.468 0 012.055.077h0a1.446 1.446 0 01-.087 2.044h0a1.425 1.425 0 01-.984.386h0A1.451 1.451 0 01147.573 85.91zM86.607 80.894a1.444 1.444 0 01.241-2.026h0a1.446 1.446 0 012.036.251h0a1.444 1.444 0 01-.251 2.025h0a1.405 1.405 0 01-.887.309h0A1.426 1.426 0 0186.607 80.894zm55.651.144A1.463 1.463 0 01142 79h0a1.456 1.456 0 012.036-.252h0a1.454 1.454 0 01.26 2.026h0a1.428 1.428 0 01-1.147.56h0A1.447 1.447 0 01142.258 81.038zM92.695 76.61a1.452 1.452 0 01.588-1.968h0a1.451 1.451 0 011.958.589h0a1.449 1.449 0 01-.578 1.959h0a1.525 1.525 0 01-.7.173h0A1.444 1.444 0 0192.695 76.61zM136.22 77.1a1.437 1.437 0 01-.589-1.958h0a1.437 1.437 0 011.959-.589h0a1.446 1.446 0 01.588 1.959h0a1.458 1.458 0 01-1.283.762h0A1.405 1.405 0 01136.22 77.1zM99.408 73.389a1.45 1.45 0 01.9-1.843h0a1.444 1.444 0 011.843.9h0a1.445 1.445 0 01-.9 1.833h0a1.351 1.351 0 01-.473.087h0A1.457 1.457 0 0199.408 73.389zm30.193.83h0a1.443 1.443 0 01-.9-1.833h0a1.433 1.433 0 011.832-.907h0a1.456 1.456 0 01.907 1.843h0a1.458 1.458 0 01-1.37.975h0A1.359 1.359 0 01129.6 74.218zm-23.026-2.9a1.444 1.444 0 011.187-1.668h0a1.442 1.442 0 011.659 1.186h0a1.445 1.445 0 01-1.187 1.669h0a1.918 1.918 0 01-.241.019h0A1.438 1.438 0 01106.575 71.314zm16.033 1.158h.009a1.447 1.447 0 01-1.2-1.659h0a1.438 1.438 0 011.66-1.2h0a1.443 1.443 0 011.2 1.659h0a1.455 1.455 0 01-1.427 1.216h0A2.27 2.27 0 01122.608 72.472zm-7.187-.569a1.445 1.445 0 01-1.447-1.447h0a1.445 1.445 0 011.447-1.447h0a1.437 1.437 0 011.447 1.438h0a1.459 1.459 0 01-1.447 1.456h0zM113.945 151.959a1.573 1.573 0 011.573-1.572V150.4h.048a.367.367 0 01.1-.009h0a1.564 1.564 0 011.572 1.563h0a1.558 1.558 0 01-1.563 1.572h-.154A1.565 1.565 0 01113.945 151.959zm-5.826.849a1.575 1.575 0 01-1.234-1.843h0a1.563 1.563 0 011.843-1.235h0a1.57 1.57 0 011.234 1.843h0a1.567 1.567 0 01-1.534 1.264h0A1.719 1.719 0 01108.119 152.808zm13.11-1.264a1.56 1.56 0 011.225-1.842h0a1.561 1.561 0 011.843 1.225h0a1.557 1.557 0 01-1.226 1.843h0a1.159 1.159 0 01-.308.039h0A1.567 1.567 0 01121.229 151.544zm-20.229-.9a1.565 1.565 0 01-.849-2.045h0a1.576 1.576 0 012.055-.849h0a1.56 1.56 0 01.839 2.045h0a1.553 1.553 0 01-1.447.974h0A1.451 1.451 0 01101 150.647zm27.126-.9a1.575 1.575 0 01.839-2.055h0a1.566 1.566 0 012.055.839h0a1.566 1.566 0 01-.839 2.055h0a1.708 1.708 0 01-.608.125h0A1.579 1.579 0 01128.126 149.75zm-33.685-2.6h0a1.576 1.576 0 01-.424-2.18h0a1.556 1.556 0 012.17-.425h0a1.557 1.557 0 01.433 2.17h0a1.569 1.569 0 01-1.3.7h0A1.612 1.612 0 0194.44 147.145zm40.1-.512a1.577 1.577 0 01.424-2.18h0a1.569 1.569 0 012.181.425h0a1.567 1.567 0 01-.425 2.17h0a1.546 1.546 0 01-.878.269h0A1.586 1.586 0 01134.541 146.634zM88.7 142.429h0a1.57 1.57 0 01-.009-2.219h0a1.561 1.561 0 012.218 0h0a1.56 1.56 0 010 2.219h0a1.564 1.564 0 01-1.1.453h0A1.573 1.573 0 0188.7 142.429zm51.531-.106a1.569 1.569 0 01-.009-2.219h0a1.567 1.567 0 012.218-.009h0a1.568 1.568 0 01.01 2.219h0a1.581 1.581 0 01-1.119.463h0A1.584 1.584 0 01140.232 142.322zm-56.257-5.643h0a1.567 1.567 0 01.424-2.17h0a1.577 1.577 0 012.181.424h0a1.576 1.576 0 01-.425 2.18h0a1.627 1.627 0 01-.878.261h0A1.558 1.558 0 0183.974 136.679zm61 .308a1.561 1.561 0 01-.445-2.171h0a1.572 1.572 0 012.17-.444h0a1.572 1.572 0 01.445 2.171h0a1.561 1.561 0 01-1.312.7h0A1.538 1.538 0 01144.979 136.987zm-64.516-6.858a1.553 1.553 0 01.839-2.045h0a1.566 1.566 0 012.055.839v.009a1.571 1.571 0 01-.849 2.045h0a1.647 1.647 0 01-.6.116h0A1.57 1.57 0 0180.462 130.129zm68.123.7a1.557 1.557 0 01-.849-2.045h0a1.557 1.557 0 012.045-.849h0a1.565 1.565 0 01.849 2.045h.009a1.575 1.575 0 01-1.456.974h0A1.516 1.516 0 01148.586 130.833zM78.292 123.02v-.01h0a1.575 1.575 0 011.235-1.843h0a1.57 1.57 0 011.843 1.234h0a1.556 1.556 0 01-1.226 1.843h0a1.7 1.7 0 01-.308.029h0A1.578 1.578 0 0178.292 123.02zm72.639 1.07a1.566 1.566 0 01-1.244-1.832h0a1.563 1.563 0 011.842-1.235h0a1.561 1.561 0 011.235 1.833h0a1.566 1.566 0 01-1.534 1.273h0A1.049 1.049 0 01150.93 124.09zm-73.362-8.469a1.565 1.565 0 011.563-1.572h0a1.57 1.57 0 011.572 1.562h0a1.571 1.571 0 01-1.562 1.573h0A1.571 1.571 0 0177.568 115.621zm72.764-.154a1.557 1.557 0 011.563-1.572h0a1.577 1.577 0 011.572 1.563h0a1.571 1.571 0 01-1.563 1.572h0A1.565 1.565 0 01150.332 115.467zm-70.815-5.412a1.56 1.56 0 01-1.235-1.832h0a1.564 1.564 0 011.843-1.235h0a1.561 1.561 0 011.235 1.833h0a1.574 1.574 0 01-1.534 1.273h0A1.12 1.12 0 0179.517 110.055zm70.13-1.379a1.566 1.566 0 011.225-1.843h0a1.557 1.557 0 011.843 1.226h.009a1.585 1.585 0 01-1.234 1.852h0a1.724 1.724 0 01-.309.028h0A1.557 1.557 0 01149.647 108.675zm-68.365-5.528a1.569 1.569 0 01-.859-2.044h0a1.585 1.585 0 012.056-.859h0a1.588 1.588 0 01.849 2.055h0a1.583 1.583 0 01-1.457.965h0A1.6 1.6 0 0181.283 103.148zm66.368-.983a1.563 1.563 0 01.839-2.055h0a1.566 1.566 0 012.055.839h0A1.579 1.579 0 01149.7 103h0a1.608 1.608 0 01-.6.116h0A1.561 1.561 0 01147.65 102.164zM84.359 96.713a1.587 1.587 0 01-.433-2.18h0a1.578 1.578 0 012.18-.434h0a1.579 1.579 0 01.434 2.181h0a1.576 1.576 0 01-1.312.694h0A1.6 1.6 0 0184.359 96.713zm60.049-.559h.01a1.555 1.555 0 01.414-2.171h0a1.568 1.568 0 012.18.425h0a1.567 1.567 0 01-.424 2.17h0a1.542 1.542 0 01-.878.27h0A1.571 1.571 0 01144.409 96.154zM88.643 91a1.569 1.569 0 010-2.219h0a1.561 1.561 0 012.218 0h0a1.578 1.578 0 010 2.219h0a1.6 1.6 0 01-1.109.454h0A1.545 1.545 0 0188.643 91zm51.425-.106a1.57 1.57 0 01-.009-2.219h0a1.569 1.569 0 012.218-.01h0a1.568 1.568 0 01.01 2.218h0a1.573 1.573 0 01-1.11.464h0A1.59 1.59 0 01140.068 90.9zM93.948 86.238a1.578 1.578 0 01.424-2.181h.01a1.567 1.567 0 012.17.425h0a1.576 1.576 0 01-.425 2.18h0a1.627 1.627 0 01-.878.261h0A1.586 1.586 0 0193.948 86.238zm40.834.337a1.565 1.565 0 01-.434-2.17h0a1.56 1.56 0 012.17-.434h0a1.569 1.569 0 01.444 2.171h0a1.584 1.584 0 01-1.312.7h0A1.606 1.606 0 01134.782 86.575zm-34.7-3.993a1.556 1.556 0 01.838-2.045h0a1.567 1.567 0 012.055.839h0a1.58 1.58 0 01-.85 2.055h0a1.6 1.6 0 01-.6.116h0A1.554 1.554 0 01100.084 82.582zm28.678.79a1.556 1.556 0 01-.849-2.044h0a1.558 1.558 0 012.045-.85h0a1.565 1.565 0 01.849 2.045h0a1.569 1.569 0 01-1.447.965h0A1.61 1.61 0 01128.762 83.372zm-21.955-3.163a1.575 1.575 0 011.235-1.843h0a1.561 1.561 0 011.842 1.225h0a1.569 1.569 0 01-1.234 1.852h0a1.562 1.562 0 01-.309.029h0A1.583 1.583 0 01106.807 80.209zm15.425 1.206A1.575 1.575 0 01121 79.572h0a1.553 1.553 0 011.832-1.235h.01a1.56 1.56 0 011.234 1.833h0a1.565 1.565 0 01-1.534 1.273h0A1.7 1.7 0 01122.232 81.415zm-6.791-.646h0zM113.869 79.2a1.568 1.568 0 011.562-1.562h0A1.558 1.558 0 01117 79.2h0a1.572 1.572 0 01-1.563 1.573h0A1.573 1.573 0 01113.869 79.2zM113.83 143.21a1.69 1.69 0 011.688-1.688h.105a1.688 1.688 0 011.688 1.679h0a1.678 1.678 0 01-1.679 1.7h-.115A1.684 1.684 0 01113.83 143.21zm-5.894.694a1.678 1.678 0 01-1.2-2.064h0a1.691 1.691 0 012.065-1.2h0a1.691 1.691 0 011.2 2.065h0a1.685 1.685 0 01-1.63 1.254h0A1.679 1.679 0 01107.936 143.9zm13.205-1.215a1.7 1.7 0 011.187-2.073h0a1.694 1.694 0 012.074 1.2h0a1.686 1.686 0 01-1.187 2.065h0a1.8 1.8 0 01-.444.058h0A1.689 1.689 0 01121.141 142.689zm-20.276-1.707h0a1.683 1.683 0 01-.617-2.306h0a1.677 1.677 0 012.305-.617h0a1.693 1.693 0 01.617 2.305h0a1.7 1.7 0 01-1.466.839h0A1.631 1.631 0 01100.865 140.982zm27.1-.666a1.7 1.7 0 01.608-2.315h0a1.705 1.705 0 012.315.608h0a1.7 1.7 0 01-.608 2.315h0a1.692 1.692 0 01-.849.222h0A1.7 1.7 0 01127.962 140.316zM94.8 136.322a1.683 1.683 0 010-2.393h0a1.689 1.689 0 012.382 0h0a1.7 1.7 0 010 2.393h0a1.687 1.687 0 01-1.2.492h0A1.666 1.666 0 0194.8 136.322zm39.136-.077a1.688 1.688 0 01-.01-2.382h0a1.692 1.692 0 012.393-.01h0a1.689 1.689 0 01.009 2.383h0a1.694 1.694 0 01-1.206.5h0A1.681 1.681 0 01133.933 136.245zm-43.8-5.99h0a1.683 1.683 0 01.617-2.306h0a1.692 1.692 0 012.306.618h0a1.689 1.689 0 01-.618 2.305h0a1.7 1.7 0 01-.849.232h0A1.686 1.686 0 0190.128 130.255zm48.531.53a1.693 1.693 0 01-.626-2.305h0a1.689 1.689 0 012.305-.627h0a1.69 1.69 0 01.627 2.305h0a1.712 1.712 0 01-1.467.85h0A1.731 1.731 0 01138.659 130.785zM87.2 123.193a1.69 1.69 0 011.186-2.073h0a1.7 1.7 0 012.074 1.2h0a1.691 1.691 0 01-1.2 2.065h0a1.673 1.673 0 01-.434.057h0A1.679 1.679 0 0187.2 123.193zm54.609 1.081a1.676 1.676 0 01-1.2-2.055h0a1.68 1.68 0 012.064-1.206h0a1.687 1.687 0 011.2 2.064h0a1.68 1.68 0 01-1.631 1.254h0A1.673 1.673 0 01141.8 124.274zM86.193 115.6a1.69 1.69 0 011.688-1.688h0a1.69 1.69 0 011.688 1.688h0a1.684 1.684 0 01-1.688 1.688h0A1.69 1.69 0 0186.193 115.6zm55.274-.106h0a1.676 1.676 0 011.679-1.688h0a1.689 1.689 0 011.7 1.678h0a1.705 1.705 0 01-1.688 1.7h0A1.684 1.684 0 01141.467 115.5zm3.376-.01h0zm-56.47-5.4a1.686 1.686 0 01-1.2-2.064h0a1.69 1.69 0 012.065-1.2h0a1.683 1.683 0 011.2 2.064h0a1.677 1.677 0 01-1.621 1.254h0A1.756 1.756 0 0188.372 110.084zm52.2-1.292h0a1.691 1.691 0 011.186-2.074h0a1.685 1.685 0 012.065 1.187h0a1.682 1.682 0 01-1.187 2.073h0a1.67 1.67 0 01-.434.058h0A1.679 1.679 0 01140.57 108.791zm-49.853-5.537a1.688 1.688 0 01-.618-2.305h0a1.679 1.679 0 012.306-.618h0a1.678 1.678 0 01.617 2.306h0a1.681 1.681 0 01-1.467.839h0A1.677 1.677 0 0190.717 103.254zm47.238-.714h0a1.7 1.7 0 01.608-2.305h0a1.7 1.7 0 012.315.608h0a1.7 1.7 0 01-.618 2.316h0a1.664 1.664 0 01-.839.221h0A1.69 1.69 0 01137.956 102.54zm-43.2-5.276a1.693 1.693 0 01-.009-2.393h0a1.7 1.7 0 012.392 0h0a1.68 1.68 0 010 2.383h0a1.657 1.657 0 01-1.2.5h0A1.682 1.682 0 0194.759 97.264zm39.059-.077a1.69 1.69 0 01-.009-2.392h0a1.7 1.7 0 012.392 0h0a1.688 1.688 0 01.009 2.382h0a1.673 1.673 0 01-1.2.5h0A1.687 1.687 0 01133.817 97.186zM100.2 92.508a1.689 1.689 0 01.608-2.306h0a1.692 1.692 0 012.315.618h0a1.69 1.69 0 01-.617 2.305h0a1.678 1.678 0 01-.849.232h0A1.7 1.7 0 01100.2 92.508zm28.236.569a1.708 1.708 0 01-.617-2.316h0a1.694 1.694 0 012.305-.617h0a1.685 1.685 0 01.617 2.305h0a1.687 1.687 0 01-1.466.849h0A1.8 1.8 0 01128.435 93.077zm-21.753-3.743a1.689 1.689 0 011.2-2.074h0a1.683 1.683 0 012.065 1.2h0a1.684 1.684 0 01-1.187 2.064h0a1.808 1.808 0 01-.444.058h0A1.688 1.688 0 01106.682 89.334zm15.5 1.158h0a1.685 1.685 0 01-1.206-2.065h0a1.691 1.691 0 012.065-1.2h0a1.693 1.693 0 011.206 2.065h0a1.7 1.7 0 01-1.64 1.254h0A1.594 1.594 0 01122.183 90.492zm-8.411-2.547a1.69 1.69 0 011.688-1.688h0a1.69 1.69 0 011.688 1.688h0a1.688 1.688 0 01-1.679 1.688h0A1.692 1.692 0 01113.772 87.945zM115.557 136.274h-.039a1.811 1.811 0 01-1.814-1.8h0a1.812 1.812 0 011.814-1.813h.067a1.8 1.8 0 011.813 1.8h0a1.808 1.808 0 01-1.794 1.814h-.048zM107.6 134.7a1.8 1.8 0 01-.975-2.363h0a1.807 1.807 0 012.364-.975h0a1.806 1.806 0 01.974 2.364h0a1.817 1.817 0 01-1.668 1.119h0A1.744 1.744 0 01107.6 134.7zm13.543-.993a1.813 1.813 0 01.975-2.373h0a1.8 1.8 0 012.364.974h0a1.81 1.81 0 01-.965 2.364h0a1.849 1.849 0 01-.7.144h0A1.823 1.823 0 01121.141 133.708zm-20.258-3.492a1.812 1.812 0 010-2.557h0a1.823 1.823 0 012.566 0h0a1.81 1.81 0 010 2.557h0a1.8 1.8 0 01-1.283.53h0A1.8 1.8 0 01100.884 130.216zm26.76-.048a1.811 1.811 0 01-.009-2.557h0a1.8 1.8 0 012.557-.01h0a1.8 1.8 0 01.009 2.556h0a1.789 1.789 0 01-1.283.531h0A1.815 1.815 0 01127.643 130.168zM96.4 123.512a1.8 1.8 0 01.974-2.364h0a1.811 1.811 0 012.364.974h0a1.8 1.8 0 01-.974 2.364h0a1.788 1.788 0 01-.7.145h0A1.817 1.817 0 0196.4 123.512zm35.913.907a1.808 1.808 0 01-.993-2.354h0a1.818 1.818 0 012.363-.994h0a1.805 1.805 0 01.984 2.364h0A1.818 1.818 0 01133 124.553h0A1.711 1.711 0 01132.312 124.419zM94.817 115.6a1.811 1.811 0 011.813-1.813h0a1.808 1.808 0 011.8 1.8h0a1.8 1.8 0 01-1.8 1.813h0A1.809 1.809 0 0194.817 115.6zm37.775-.077a1.81 1.81 0 011.8-1.814h0a1.8 1.8 0 011.813 1.8h0a1.806 1.806 0 01-1.794 1.814h0A1.819 1.819 0 01132.592 115.524zm-35.228-5.479a1.815 1.815 0 01-.984-2.364h0a1.814 1.814 0 012.364-.984h0a1.814 1.814 0 01.984 2.364h0a1.817 1.817 0 01-1.669 1.118h0A1.932 1.932 0 0197.363 110.045zm33.917-1.051h0a1.8 1.8 0 01.974-2.364h0a1.8 1.8 0 012.363.974h0a1.809 1.809 0 01-.965 2.364h0a1.815 1.815 0 01-.7.145h0A1.817 1.817 0 01131.28 108.994zm-30.416-5.469a1.8 1.8 0 01-.009-2.557h.009a1.8 1.8 0 012.557-.009h0a1.812 1.812 0 010 2.557h0a1.818 1.818 0 01-1.283.54h0A1.825 1.825 0 01100.865 103.524zm26.7-.058a1.8 1.8 0 01-.009-2.556h0a1.82 1.82 0 012.557-.01h0a1.824 1.824 0 01.009 2.566h0a1.843 1.843 0 01-1.283.531h0A1.767 1.767 0 01127.566 103.466zm-20.981-4.63a1.813 1.813 0 01.975-2.373h0a1.808 1.808 0 012.363.974h0a1.811 1.811 0 01-.974 2.373h0a1.912 1.912 0 01-.694.136h0A1.809 1.809 0 01106.585 98.836zm15.434.946a1.806 1.806 0 01-.984-2.364h0a1.8 1.8 0 012.353-.984h0a1.8 1.8 0 01.985 2.364h0a1.8 1.8 0 01-1.669 1.119h0A1.891 1.891 0 01122.019 99.782zm-8.354-3.087a1.81 1.81 0 011.8-1.813h0a1.809 1.809 0 011.813 1.8h0a1.8 1.8 0 01-1.8 1.813h0A1.816 1.816 0 01113.665 96.695zM115.537 127.65h-.019a1.929 1.929 0 01-1.929-1.929h0a1.926 1.926 0 011.852-1.929h.106a1.917 1.917 0 011.94 1.92h0a1.929 1.929 0 01-1.92 1.939h-.029zm-7.775-2.826h0a1.918 1.918 0 01-.241-2.711h0a1.928 1.928 0 012.72-.241h0a1.938 1.938 0 01.241 2.721h0a1.946 1.946 0 01-1.486.685h0A1.883 1.883 0 01107.762 124.824zm12.83-.252a1.935 1.935 0 01.221-2.72h0a1.926 1.926 0 012.721.221h0a1.936 1.936 0 01-.222 2.721h0a1.922 1.922 0 01-1.243.453h0A1.949 1.949 0 01120.592 124.572zm-16.958-6.887a1.922 1.922 0 011.563-2.238h0a1.931 1.931 0 012.228 1.563h0a1.922 1.922 0 01-1.563 2.238h0a2.033 2.033 0 01-.337.029h0A1.921 1.921 0 01103.634 117.685zm21.55 1.524a1.925 1.925 0 01-1.572-2.228h0a1.92 1.92 0 012.228-1.573h0a1.921 1.921 0 011.572 2.229h0v-.01h0a1.932 1.932 0 01-1.9 1.611h0A2.019 2.019 0 01125.184 119.209zm-19.418-7.023a1.927 1.927 0 01-.714-2.633h0a1.925 1.925 0 012.634-.7h0a1.927 1.927 0 01.713 2.634h0a1.941 1.941 0 01-1.678.965h0A1.891 1.891 0 01105.765 112.186zm16.852-.733h0a1.938 1.938 0 01.694-2.643h0a1.943 1.943 0 012.643.7h0v.009h0a1.931 1.931 0 01-.694 2.633h0a1.893 1.893 0 01-.974.261h0A1.918 1.918 0 01122.617 111.453zm-12.4-4.737a1.929 1.929 0 011.147-2.479h0a1.923 1.923 0 012.47 1.147h0a1.931 1.931 0 01-1.148 2.48h0a1.958 1.958 0 01-.656.116h0A1.919 1.919 0 01110.222 106.717zm8.084 1.129a1.928 1.928 0 01-1.158-2.469h0a1.928 1.928 0 012.47-1.148h0a1.921 1.921 0 011.157 2.47h0a1.928 1.928 0 01-1.813 1.273h0A1.8 1.8 0 01118.306 107.845z" class="colorc4cef1 svgShape"></path></svg></g></svg>